<?xml version="1.0" encoding="utf-8"?>
<!-- Generator: Adobe Illustrator 17.1.0, SVG Export Plug-In . SVG Version: 6.00 Build 0)  -->
<!DOCTYPE svg PUBLIC "-//W3C//DTD SVG 1.1//EN" "http://www.w3.org/Graphics/SVG/1.1/DTD/svg11.dtd">
<svg version="1.1" id="Layer_1" xmlns="http://www.w3.org/2000/svg" xmlns:xlink="http://www.w3.org/1999/xlink" x="0px" y="0px"
	 viewBox="0 0 28 28" enable-background="new 0 0 28 28" xml:space="preserve">
<g id="g2901_2_">
	<g>
		<path fill="#0171D0" d="M28,27.159C28,27.621,27.621,28,27.159,28H0.841C0.379,28,0,27.621,0,27.159V0.841
			C0,0.379,0.379,0,0.841,0h26.317C27.621,0,28,0.379,28,0.841V27.159z"/>
	</g>
	<g id="layer1_2_" transform="translate(-39.499999,287.13782)">
	</g>
	<path id="path3002_1_" fill="#FFFFFF" d="M15.823,27.899
		V17.813h-3.4v-3.921h3.4v-2.992c0-3.136,1.944-5.085,5.007-5.085c1.843,0,3.084,0.145,3.084,0.145v3.536h-2.077
		c-1.316,0-1.935,0.463-1.935,1.858v2.538h3.875l-0.499,3.921h-3.377v10.085H15.823z"/>
</g>
</svg>
