<?xml version="1.0" encoding="UTF-8" standalone="no"?>
<!-- Created with Inkscape (http://www.inkscape.org/) -->

<svg
   xmlns:dc="http://purl.org/dc/elements/1.1/"
   xmlns:cc="http://creativecommons.org/ns#"
   xmlns:rdf="http://www.w3.org/1999/02/22-rdf-syntax-ns#"
   xmlns:svg="http://www.w3.org/2000/svg"
   xmlns="http://www.w3.org/2000/svg"
   xmlns:sodipodi="http://sodipodi.sourceforge.net/DTD/sodipodi-0.dtd"
   xmlns:inkscape="http://www.inkscape.org/namespaces/inkscape"
   width="637.02808"
   height="82.212936"
   id="svg3115"
   version="1.1"
   inkscape:version="0.48.4 r9939"
   sodipodi:docname="logo_plain.svg">
  <defs
     id="defs3117" />
  <sodipodi:namedview
     id="base"
     pagecolor="#ffffff"
     bordercolor="#666666"
     borderopacity="1.0"
     inkscape:pageopacity="0.0"
     inkscape:pageshadow="2"
     inkscape:zoom="0.9899495"
     inkscape:cx="617.38618"
     inkscape:cy="-87.799992"
     inkscape:document-units="px"
     inkscape:current-layer="g4470"
     showgrid="false"
     inkscape:showpageshadow="false"
     fit-margin-top="0"
     fit-margin-left="0"
     fit-margin-right="0"
     fit-margin-bottom="0"
     inkscape:window-width="1448"
     inkscape:window-height="846"
     inkscape:window-x="-8"
     inkscape:window-y="-8"
     inkscape:window-maximized="1" />
  <metadata
     id="metadata3120">
    <rdf:RDF>
      <cc:Work
         rdf:about="">
        <dc:format>image/svg+xml</dc:format>
        <dc:type
           rdf:resource="http://purl.org/dc/dcmitype/StillImage" />
        <dc:title />
      </cc:Work>
    </rdf:RDF>
  </metadata>
  <g
     inkscape:label="Layer 1"
     inkscape:groupmode="layer"
     id="layer1"
     transform="translate(-51.49429,-254.89601)">
    <g
       id="g4470"
       transform="matrix(1.7610611,0,0,1.7610611,-601.20333,-131.76428)">
      <g
         id="g4822"
         transform="translate(1.1356789,0)">
        <g
           id="g3524"
           transform="matrix(1.25,0,0,-1.25,528.80647,222.27785)">
          <path
             inkscape:connector-curvature="0"
             d="M 0,0 C 9.113,0 16.5,-7.387 16.5,-16.5 16.5,-25.613 9.113,-33 0,-33 c -9.113,0 -16.5,7.387 -16.5,16.5 C -16.5,-7.387 -9.113,0 0,0"
             style="fill:#ffffff;fill-opacity:1;fill-rule:nonzero;stroke:none"
             id="path3526" />
        </g>
        <g
           id="g3528"
           transform="matrix(1.25,0,0,-1.25,528.80647,222.27785)">
          <path
             inkscape:connector-curvature="0"
             d="M 0,0 C 9.113,0 16.5,-7.387 16.5,-16.5 16.5,-25.613 9.113,-33 0,-33 c -9.113,0 -16.5,7.387 -16.5,16.5 C -16.5,-7.387 -9.113,0 0,0 z"
             style="fill:none;stroke:#2d70b8;stroke-width:4.34700012;stroke-linecap:butt;stroke-linejoin:miter;stroke-miterlimit:4;stroke-opacity:1;stroke-dasharray:none"
             id="path3530" />
        </g>
        <g
           id="g3532"
           transform="matrix(1.25,0,0,-1.25,537.67347,237.46472)">
          <path
             inkscape:connector-curvature="0"
             d="M 0,0 C 0.759,-2.222 1.785,-5.112 2.678,-8.199 2.039,-8.196 -1.647,-8.181 -2.678,-8.185 -1.748,-5.361 -0.842,-2.584 0,0 z m -14.187,0 c 0.842,-2.584 1.748,-5.361 2.678,-8.185 -1.031,0.004 -4.717,-0.011 -5.356,-0.014 0.893,3.087 1.919,5.977 2.678,8.199 z M -7.1,6.043 C -7.243,6.029 -7.389,5.879 -7.622,5.59 -8.611,4.365 -13.223,2.045 -14.173,2.294 c -0.727,0.19 -0.843,0.057 -0.66,-0.646 0.039,-0.146 0.187,-0.403 0.193,-0.865 0.005,-0.439 -0.206,-0.995 -0.426,-1.621 -0.877,-2.525 -1.622,-4.718 -2.404,-7.375 -0.094,-0.348 -0.151,-0.599 -0.151,-0.714 -0.007,-0.135 0.054,-0.271 0.083,-0.385 0.425,-1.265 1.764,-2.197 3.351,-2.197 1.662,0 3.026,1.017 3.378,2.376 0.016,0.073 0.028,0.144 0.042,0.233 0,0.169 -0.023,0.353 -0.138,0.701 -0.868,2.648 -1.521,4.617 -2.417,7.347 -0.101,0.32 -0.255,0.779 -0.275,0.866 -0.085,0.379 -0.061,0.527 -0.068,0.769 -0.027,0.853 3.321,2.678 4.573,2.678 1.2,0 1.531,-2.35 1.483,-8.543 l 0.014,-6.042 -1.868,-0.646 c -0.694,-0.24 -1.676,-0.684 -2.128,-0.975 -0.067,-0.043 -0.112,-0.096 -0.152,-0.179 -0.129,-0.325 -0.14,-0.431 -0.178,-0.7 l 0,-0.33 9.655,0 0,0.33 c -0.038,0.269 -0.049,0.375 -0.179,0.7 -0.039,0.083 -0.084,0.136 -0.151,0.179 -0.452,0.291 -1.434,0.735 -2.129,0.975 l -1.867,0.646 0.013,6.042 c -0.047,6.193 0.283,8.543 1.484,8.543 1.252,0 4.6,-1.825 4.573,-2.678 C -0.53,0.541 -0.505,0.393 -0.591,0.014 -0.61,-0.073 -0.764,-0.532 -0.865,-0.852 -1.761,-3.582 -2.414,-5.551 -3.282,-8.199 -3.397,-8.547 -3.42,-8.731 -3.42,-8.9 c 0.014,-0.089 0.026,-0.16 0.041,-0.233 0.353,-1.359 1.717,-2.376 3.379,-2.376 1.586,0 2.926,0.932 3.351,2.197 0.029,0.114 0.09,0.25 0.082,0.385 0,0.115 -0.057,0.366 -0.151,0.714 -0.781,2.657 -1.527,4.85 -2.403,7.375 -0.22,0.626 -0.431,1.182 -0.426,1.621 0.006,0.462 0.154,0.719 0.192,0.865 0.184,0.703 0.068,0.836 -0.659,0.646 -0.95,-0.249 -5.563,2.071 -6.551,3.296 -0.233,0.289 -0.379,0.439 -0.522,0.453 -0.004,0 -0.009,0 -0.014,0 l 0.001,0 z"
             style="fill:#259ad6;fill-opacity:1;fill-rule:nonzero;stroke:none"
             id="path3534" />
        </g>
      </g>
      <g
         id="g4397">
        <g
           id="g3536"
           transform="matrix(1.25,0,0,-1.25,378.90747,239.20372)">
          <path
             inkscape:connector-curvature="0"
             d="m 0,0 c 0,-2.24 -1.104,-3.36 -3.312,-3.36 -2.208,0 -3.312,1.12 -3.312,3.36 l 0,4.056 2.448,0 0,-4.272 c 0,-0.56 0.256,-0.84 0.768,-0.84 0.512,0 0.768,0.28 0.768,0.84 l 0,13.896 2.64,0 L 0,0 z"
             style="fill:#231f20;fill-opacity:1;fill-rule:nonzero;stroke:none"
             id="path3538" />
        </g>
        <g
           id="g3540"
           transform="matrix(1.25,0,0,-1.25,384.87734,230.08384)">
          <path
             inkscape:connector-curvature="0"
             d="M 0,0 C 0,0.544 -0.24,0.816 -0.72,0.816 -1.2,0.816 -1.44,0.544 -1.44,0 l 0,-7.848 c 0,-0.544 0.24,-0.816 0.72,-0.816 0.48,0 0.72,0.272 0.72,0.816 L 0,0 z m 2.304,-7.512 c 0,-2.096 -1.008,-3.144 -3.024,-3.144 -2.016,0 -3.024,1.048 -3.024,3.144 l 0,7.176 c 0,2.096 1.008,3.144 3.024,3.144 2.016,0 3.024,-1.048 3.024,-3.144 l 0,-7.176 z"
             style="fill:#231f20;fill-opacity:1;fill-rule:nonzero;stroke:none"
             id="path3542" />
        </g>
        <g
           id="g3544"
           transform="matrix(1.25,0,0,-1.25,396.66685,243.10397)">
          <path
             inkscape:connector-curvature="0"
             d="m 0,0 -2.304,0 0,10.416 c 0,0.544 -0.224,0.816 -0.672,0.816 -0.224,0 -0.408,-0.08 -0.552,-0.24 -0.144,-0.16 -0.216,-0.368 -0.216,-0.624 l 0,-10.368 -2.304,0 0,16.8 2.304,0 0,-4.656 c 0.368,0.72 0.952,1.08 1.752,1.08 C -0.664,13.224 0,12.352 0,10.608 L 0,0 z"
             style="fill:#231f20;fill-opacity:1;fill-rule:nonzero;stroke:none"
             id="path3546" />
        </g>
        <g
           id="g3548"
           transform="matrix(1.25,0,0,-1.25,400.98634,243.10397)">
          <path
             inkscape:connector-curvature="0"
             d="m 0,0 -2.304,0 0,12.984 2.136,0 0,-1.272 c 0.128,0.448 0.36,0.812 0.696,1.092 0.336,0.28 0.744,0.42 1.224,0.42 1.328,0 1.992,-0.872 1.992,-2.616 L 3.744,0 1.44,0 l 0,10.416 c 0,0.544 -0.224,0.816 -0.672,0.816 -0.224,0 -0.408,-0.08 -0.552,-0.24 C 0.072,10.832 0,10.624 0,10.368 L 0,0 z"
             style="fill:#231f20;fill-opacity:1;fill-rule:nonzero;stroke:none"
             id="path3550" />
        </g>
        <g
           id="g3552"
           transform="matrix(1.25,0,0,-1.25,411.36534,224.98385)">
          <path
             inkscape:connector-curvature="0"
             d="m 0,0 0,2.304 5.856,0 0,-1.68 -3.072,-12.816 3.072,0 0,-2.304 -5.952,0 0,1.656 L 2.976,0 0,0 z"
             style="fill:#231f20;fill-opacity:1;fill-rule:nonzero;stroke:none"
             id="path3554" />
        </g>
        <path
           inkscape:connector-curvature="0"
           d="m 422.67522,243.10359 -2.88,0 0,-16.22999 2.88,0 0,16.22999 z m 0,-17.72999 -2.88,0 0,-2.82 2.88,0 0,2.82 z"
           style="fill:#231f20;fill-opacity:1;fill-rule:nonzero;stroke:none"
           id="path3556" />
        <g
           id="g3558"
           transform="matrix(1.25,0,0,-1.25,427.05509,243.10397)">
          <path
             inkscape:connector-curvature="0"
             d="m 0,0 -2.304,0 0,12.984 2.136,0 0,-1.272 c 0.112,0.448 0.336,0.812 0.672,1.092 0.336,0.28 0.744,0.42 1.224,0.42 0.928,0 1.528,-0.456 1.8,-1.368 0.336,0.912 0.968,1.368 1.896,1.368 1.312,0 1.968,-0.872 1.968,-2.616 L 7.392,0 5.088,0 l 0,10.416 c 0,0.544 -0.216,0.816 -0.648,0.816 -0.224,0 -0.404,-0.08 -0.54,-0.24 C 3.764,10.832 3.696,10.624 3.696,10.368 L 3.696,0 1.392,0 l 0,10.416 c 0,0.544 -0.216,0.816 -0.648,0.816 -0.224,0 -0.404,-0.08 -0.54,-0.24 C 0.068,10.832 0,10.624 0,10.368 L 0,0 z"
             style="fill:#231f20;fill-opacity:1;fill-rule:nonzero;stroke:none"
             id="path3560" />
        </g>
        <g
           id="g3562"
           transform="matrix(1.25,0,0,-1.25,440.61459,243.10397)">
          <path
             inkscape:connector-curvature="0"
             d="m 0,0 -2.304,0 0,12.984 2.136,0 0,-1.272 c 0.112,0.448 0.336,0.812 0.672,1.092 0.336,0.28 0.744,0.42 1.224,0.42 0.928,0 1.528,-0.456 1.8,-1.368 0.336,0.912 0.968,1.368 1.896,1.368 1.312,0 1.968,-0.872 1.968,-2.616 L 7.392,0 5.088,0 l 0,10.416 c 0,0.544 -0.216,0.816 -0.648,0.816 -0.224,0 -0.404,-0.08 -0.54,-0.24 C 3.764,10.832 3.696,10.624 3.696,10.368 L 3.696,0 1.392,0 l 0,10.416 c 0,0.544 -0.216,0.816 -0.648,0.816 -0.224,0 -0.404,-0.08 -0.54,-0.24 C 0.068,10.832 0,10.624 0,10.368 L 0,0 z"
             style="fill:#231f20;fill-opacity:1;fill-rule:nonzero;stroke:none"
             id="path3564" />
        </g>
        <g
           id="g3566"
           transform="matrix(1.25,0,0,-1.25,454.02459,230.08384)">
          <path
             inkscape:connector-curvature="0"
             d="m 0,0 0,-2.64 1.44,0 0,2.64 C 1.44,0.544 1.2,0.816 0.72,0.816 0.24,0.816 0,0.544 0,0 M 3.576,-4.56 0,-4.56 0,-7.848 c 0,-0.544 0.24,-0.816 0.72,-0.816 0.48,0 0.72,0.272 0.72,0.816 l 0,2.4 2.136,0 0,-2.064 c 0,-2.096 -0.976,-3.144 -2.928,-3.144 -1.968,0 -2.952,1.048 -2.952,3.144 l 0,7.176 c 0,2.096 0.984,3.144 2.952,3.144 1.952,0 2.928,-1.048 2.928,-3.144 l 0,-4.224 z"
             style="fill:#231f20;fill-opacity:1;fill-rule:nonzero;stroke:none"
             id="path3568" />
        </g>
        <g
           id="g3570"
           transform="matrix(1.25,0,0,-1.25,462.69409,243.10397)">
          <path
             inkscape:connector-curvature="0"
             d="m 0,0 -2.304,0 0,12.984 2.136,0 0,-1.272 c 0.128,0.448 0.356,0.812 0.684,1.092 0.328,0.28 0.74,0.42 1.236,0.42 0.608,0 1.06,-0.196 1.356,-0.588 0.296,-0.392 0.444,-1.052 0.444,-1.98 l 0,-4.752 -2.136,0 0,4.512 c 0,0.544 -0.216,0.816 -0.648,0.816 -0.24,0 -0.428,-0.08 -0.564,-0.24 C 0.068,10.832 0,10.624 0,10.368 L 0,0 z"
             style="fill:#231f20;fill-opacity:1;fill-rule:nonzero;stroke:none"
             id="path3572" />
        </g>
        <g
           id="g3574"
           transform="matrix(1.25,0,0,-1.25,471.12359,243.10397)">
          <path
             inkscape:connector-curvature="0"
             d="m 0,0 -2.304,0 0,12.984 2.136,0 0,-1.272 c 0.112,0.448 0.336,0.812 0.672,1.092 0.336,0.28 0.744,0.42 1.224,0.42 0.928,0 1.528,-0.456 1.8,-1.368 0.336,0.912 0.968,1.368 1.896,1.368 1.312,0 1.968,-0.872 1.968,-2.616 L 7.392,0 5.088,0 l 0,10.416 c 0,0.544 -0.216,0.816 -0.648,0.816 -0.224,0 -0.404,-0.08 -0.54,-0.24 C 3.764,10.832 3.696,10.624 3.696,10.368 L 3.696,0 1.392,0 l 0,10.416 c 0,0.544 -0.216,0.816 -0.648,0.816 -0.224,0 -0.404,-0.08 -0.54,-0.24 C 0.068,10.832 0,10.624 0,10.368 L 0,0 z"
             style="fill:#231f20;fill-opacity:1;fill-rule:nonzero;stroke:none"
             id="path3576" />
        </g>
        <g
           id="g3578"
           transform="matrix(1.25,0,0,-1.25,486.18347,239.83359)">
          <path
             inkscape:connector-curvature="0"
             d="M 0,0 0,3.576 C -0.336,3.368 -0.576,3.211 -0.72,3.108 -0.864,3.003 -1.02,2.808 -1.188,2.52 -1.356,2.232 -1.44,1.896 -1.44,1.512 l 0,-1.632 c 0,-0.512 0.216,-0.768 0.648,-0.768 0.24,0 0.432,0.084 0.576,0.252 C -0.072,-0.468 0,-0.256 0,0 m 0.336,-2.616 c -0.096,0.207 -0.176,0.568 -0.24,1.08 -0.336,-0.881 -0.952,-1.32 -1.848,-1.32 -1.328,0 -1.992,0.832 -1.992,2.496 l 0,1.632 c 0,0.735 0.128,1.356 0.384,1.86 0.256,0.504 0.568,0.876 0.936,1.116 0.368,0.24 0.736,0.452 1.104,0.636 0.368,0.183 0.68,0.4 0.936,0.648 C -0.128,5.78 0,6.08 0,6.432 L 0,7.8 c 0,0.544 -0.224,0.816 -0.672,0.816 -0.464,0 -0.696,-0.272 -0.696,-0.816 l 0,-2.256 -2.16,0 0,1.92 c 0,2.096 0.976,3.144 2.928,3.144 1.936,0 2.904,-1.048 2.904,-3.144 l 0,-7.128 c 0,-1.232 0.072,-2.216 0.216,-2.952 l -2.184,0 z"
             style="fill:#231f20;fill-opacity:1;fill-rule:nonzero;stroke:none"
             id="path3580" />
        </g>
        <g
           id="g3582"
           transform="matrix(1.25,0,0,-1.25,493.38322,243.10397)">
          <path
             inkscape:connector-curvature="0"
             d="m 0,0 -2.304,0 0,12.984 2.136,0 0,-1.272 c 0.128,0.448 0.36,0.812 0.696,1.092 0.336,0.28 0.744,0.42 1.224,0.42 1.328,0 1.992,-0.872 1.992,-2.616 L 3.744,0 1.44,0 l 0,10.416 c 0,0.544 -0.224,0.816 -0.672,0.816 -0.224,0 -0.408,-0.08 -0.552,-0.24 C 0.072,10.832 0,10.624 0,10.368 L 0,0 z"
             style="fill:#231f20;fill-opacity:1;fill-rule:nonzero;stroke:none"
             id="path3584" />
        </g>
        <g
           id="g3586"
           transform="matrix(1.25,0,0,-1.25,388.78909,248.23759)">
          <path
             inkscape:connector-curvature="0"
             d="m 0,0 0,-9.521 c 0,-1.235 -0.584,-1.852 -1.751,-1.852 -1.167,0 -1.751,0.617 -1.751,1.852 l 0,2.942 0.714,0 0,-2.992 c 0,-0.76 0.34,-1.139 1.02,-1.139 0.68,0 1.02,0.379 1.02,1.139 l 0,9.571 -0.544,0 0,0.663 1.802,0 L 0.51,0 0,0 z"
             style="fill:#7b7979;fill-opacity:1;fill-rule:nonzero;stroke:none"
             id="path3588" />
        </g>
        <g
           id="g3590"
           transform="matrix(1.25,0,0,-1.25,393.48447,252.74322)">
          <path
             inkscape:connector-curvature="0"
             d="M 0,0 C 0,0.736 -0.312,1.105 -0.935,1.105 -1.559,1.105 -1.87,0.736 -1.87,0 l 0,-6.068 c 0,-0.738 0.311,-1.106 0.935,-1.106 0.623,0 0.935,0.368 0.935,1.106 L 0,0 z m 0.697,-6.001 c 0,-1.179 -0.544,-1.768 -1.632,-1.768 -1.077,0 -1.615,0.589 -1.615,1.768 l 0,5.934 c 0,1.177 0.538,1.767 1.615,1.767 1.088,0 1.632,-0.59 1.632,-1.767 l 0,-5.934 z"
             style="fill:#7b7979;fill-opacity:1;fill-rule:nonzero;stroke:none"
             id="path3592" />
        </g>
        <g
           id="g3594"
           transform="matrix(1.25,0,0,-1.25,398.47772,262.28422)">
          <path
             inkscape:connector-curvature="0"
             d="m 0,0 0,0.578 0.459,0 0,7.055 C 0.459,8.052 0.394,8.341 0.264,8.5 0.133,8.658 -0.074,8.738 -0.357,8.738 -0.652,8.738 -0.901,8.616 -1.105,8.372 -1.309,8.129 -1.411,7.843 -1.411,7.514 l 0,-6.936 0.476,0 0,-0.578 -1.632,0 0,0.578 0.476,0 0,10.744 -0.476,0 0,0.578 1.156,0 0,-3.434 c 0.238,0.578 0.663,0.867 1.275,0.867 0.862,0 1.292,-0.556 1.292,-1.666 l 0,-7.089 0.459,0 L 1.615,0 0,0 z"
             style="fill:#7b7979;fill-opacity:1;fill-rule:nonzero;stroke:none"
             id="path3596" />
        </g>
        <g
           id="g3598"
           transform="matrix(1.25,0,0,-1.25,401.00647,251.51035)">
          <path
             inkscape:connector-curvature="0"
             d="m 0,0 0,0.578 1.122,0 0,-0.833 c 0.102,0.283 0.269,0.516 0.502,0.696 0.232,0.182 0.501,0.273 0.807,0.273 0.861,0 1.292,-0.556 1.292,-1.666 l 0,-7.089 0.476,0 0,-0.578 -1.632,0 0,0.578 0.476,0 0,7.055 c 0,0.419 -0.065,0.708 -0.195,0.867 C 2.717,0.039 2.505,0.119 2.21,0.119 1.916,0.119 1.666,-0.003 1.462,-0.247 1.258,-0.49 1.156,-0.776 1.156,-1.105 l 0,-6.936 0.476,0 0,-0.578 -1.632,0 0,0.578 0.476,0 L 0.476,0 0,0 z"
             style="fill:#7b7979;fill-opacity:1;fill-rule:nonzero;stroke:none"
             id="path3600" />
        </g>
        <g
           id="g3602"
           transform="matrix(1.25,0,0,-1.25,407.74285,262.28422)">
          <path
             inkscape:connector-curvature="0"
             d="m 0,0 -0.595,0 0,3.196 0.646,0 0,-1.564 c 0,-0.34 0.085,-0.62 0.255,-0.842 0.17,-0.221 0.402,-0.331 0.697,-0.331 0.294,0 0.521,0.079 0.68,0.238 0.158,0.158 0.238,0.442 0.238,0.85 l 0,0.663 C 1.921,2.618 1.836,2.98 1.666,3.298 1.496,3.615 1.286,3.887 1.037,4.114 0.788,4.341 0.538,4.575 0.289,4.819 0.04,5.063 -0.17,5.381 -0.34,5.771 -0.51,6.162 -0.595,6.607 -0.595,7.106 l 0,0.595 c 0,1.088 0.442,1.632 1.326,1.632 0.601,0 0.992,-0.283 1.173,-0.85 l 0,0.714 0.578,0 0,-2.992 -0.629,0 0,1.36 c 0,0.351 -0.08,0.634 -0.238,0.85 C 1.456,8.63 1.229,8.738 0.935,8.738 0.651,8.738 0.442,8.661 0.306,8.509 0.17,8.355 0.102,8.075 0.102,7.667 l 0,-0.629 C 0.102,6.642 0.187,6.284 0.357,5.967 0.527,5.649 0.736,5.375 0.986,5.143 1.235,4.91 1.484,4.669 1.734,4.42 1.983,4.171 2.193,3.854 2.363,3.468 2.533,3.083 2.618,2.641 2.618,2.142 l 0,-0.629 C 2.618,0.414 2.153,-0.136 1.224,-0.136 0.589,-0.136 0.181,0.153 0,0.731 L 0,0 z"
             style="fill:#7b7979;fill-opacity:1;fill-rule:nonzero;stroke:none"
             id="path3604" />
        </g>
        <g
           id="g3606"
           transform="matrix(1.25,0,0,-1.25,415.24347,252.74322)">
          <path
             inkscape:connector-curvature="0"
             d="M 0,0 C 0,0.736 -0.312,1.105 -0.935,1.105 -1.559,1.105 -1.87,0.736 -1.87,0 l 0,-6.068 c 0,-0.738 0.311,-1.106 0.935,-1.106 0.623,0 0.935,0.368 0.935,1.106 L 0,0 z m 0.697,-6.001 c 0,-1.179 -0.544,-1.768 -1.632,-1.768 -1.077,0 -1.615,0.589 -1.615,1.768 l 0,5.934 c 0,1.177 0.538,1.767 1.615,1.767 1.088,0 1.632,-0.59 1.632,-1.767 l 0,-5.934 z"
             style="fill:#7b7979;fill-opacity:1;fill-rule:nonzero;stroke:none"
             id="path3608" />
        </g>
        <g
           id="g3610"
           transform="matrix(1.25,0,0,-1.25,417.00684,251.51035)">
          <path
             inkscape:connector-curvature="0"
             d="m 0,0 0,0.578 1.122,0 0,-0.833 c 0.102,0.283 0.269,0.516 0.502,0.696 0.232,0.182 0.501,0.273 0.807,0.273 0.861,0 1.292,-0.556 1.292,-1.666 l 0,-7.089 0.476,0 0,-0.578 -1.632,0 0,0.578 0.476,0 0,7.055 c 0,0.419 -0.065,0.708 -0.195,0.867 C 2.717,0.039 2.505,0.119 2.21,0.119 1.916,0.119 1.666,-0.003 1.462,-0.247 1.258,-0.49 1.156,-0.776 1.156,-1.105 l 0,-6.936 0.476,0 0,-0.578 -1.632,0 0,0.578 0.476,0 L 0.476,0 0,0 z"
             style="fill:#7b7979;fill-opacity:1;fill-rule:nonzero;stroke:none"
             id="path3612" />
        </g>
        <g
           id="g3614"
           transform="matrix(1.25,0,0,-1.25,430.11772,256.41872)">
          <path
             inkscape:connector-curvature="0"
             d="m 0,0 0,-2.891 c 0,-1.292 -0.583,-1.937 -1.751,-1.937 -1.179,0 -1.768,0.645 -1.768,1.937 l 0,8.33 c 0,1.27 0.504,1.905 1.513,1.905 0.635,0 1.082,-0.273 1.343,-0.817 l 0,0.681 0.663,0 0,-4.369 -0.714,0 0,2.584 c 0,0.385 -0.105,0.691 -0.314,0.918 -0.21,0.226 -0.468,0.34 -0.774,0.34 -0.351,0 -0.598,-0.1 -0.74,-0.298 C -2.683,6.185 -2.754,5.882 -2.754,5.474 l 0,-8.432 c 0,-0.806 0.34,-1.207 1.02,-1.207 0.68,0 1.02,0.401 1.02,1.207 L -0.714,0 0,0 z"
             style="fill:#7b7979;fill-opacity:1;fill-rule:nonzero;stroke:none"
             id="path3616" />
        </g>
        <g
           id="g3618"
           transform="matrix(1.25,0,0,-1.25,434.53797,252.74322)">
          <path
             inkscape:connector-curvature="0"
             d="M 0,0 C 0,0.736 -0.312,1.105 -0.935,1.105 -1.559,1.105 -1.87,0.736 -1.87,0 l 0,-6.068 c 0,-0.738 0.311,-1.106 0.935,-1.106 0.623,0 0.935,0.368 0.935,1.106 L 0,0 z m 0.697,-6.001 c 0,-1.179 -0.544,-1.768 -1.632,-1.768 -1.077,0 -1.615,0.589 -1.615,1.768 l 0,5.934 c 0,1.177 0.538,1.767 1.615,1.767 1.088,0 1.632,-0.59 1.632,-1.767 l 0,-5.934 z"
             style="fill:#7b7979;fill-opacity:1;fill-rule:nonzero;stroke:none"
             id="path3620" />
        </g>
        <g
           id="g3622"
           transform="matrix(1.25,0,0,-1.25,436.21647,251.51035)">
          <path
             inkscape:connector-curvature="0"
             d="m 0,0 0,0.578 1.156,0 0,-7.633 c 0,-0.42 0.068,-0.709 0.204,-0.867 0.136,-0.159 0.346,-0.238 0.629,-0.238 0.283,0 0.527,0.122 0.731,0.365 0.204,0.244 0.306,0.53 0.306,0.858 l 0,6.937 -0.714,0 0,0.578 1.411,0 0,-8.398 c 0,-0.215 0.085,-0.324 0.255,-0.324 0.113,0 0.238,0.035 0.374,0.103 l 0,-0.578 C 4.148,-8.71 3.955,-8.755 3.774,-8.755 c -0.476,0 -0.714,0.266 -0.714,0.799 l 0,0.102 C 2.958,-8.115 2.791,-8.33 2.559,-8.5 2.326,-8.67 2.063,-8.755 1.768,-8.755 0.895,-8.755 0.459,-8.2 0.459,-7.089 L 0.459,0 0,0 z"
             style="fill:#7b7979;fill-opacity:1;fill-rule:nonzero;stroke:none"
             id="path3624" />
        </g>
        <g
           id="g3626"
           transform="matrix(1.25,0,0,-1.25,441.95372,251.51035)">
          <path
             inkscape:connector-curvature="0"
             d="m 0,0 0,0.578 1.122,0 0,-0.833 c 0.102,0.283 0.269,0.516 0.502,0.696 0.232,0.182 0.501,0.273 0.807,0.273 0.861,0 1.292,-0.556 1.292,-1.666 l 0,-7.089 0.476,0 0,-0.578 -1.632,0 0,0.578 0.476,0 0,7.055 c 0,0.419 -0.065,0.708 -0.195,0.867 C 2.717,0.039 2.505,0.119 2.21,0.119 1.916,0.119 1.666,-0.003 1.462,-0.247 1.258,-0.49 1.156,-0.776 1.156,-1.105 l 0,-6.936 0.476,0 0,-0.578 -1.632,0 0,0.578 0.476,0 L 0.476,0 0,0 z"
             style="fill:#7b7979;fill-opacity:1;fill-rule:nonzero;stroke:none"
             id="path3628" />
        </g>
        <g
           id="g3630"
           transform="matrix(1.25,0,0,-1.25,450.30522,250.7876)">
          <path
             inkscape:connector-curvature="0"
             d="m 0,0 0,-0.578 -0.986,0 0,-7.566 c 0,-0.214 0.04,-0.368 0.119,-0.459 0.079,-0.09 0.209,-0.135 0.391,-0.135 0.159,0 0.317,0.034 0.476,0.101 l 0,-0.56 c -0.136,-0.091 -0.334,-0.136 -0.595,-0.136 -0.385,0 -0.663,0.088 -0.833,0.264 -0.17,0.174 -0.255,0.472 -0.255,0.891 l 0,7.6 -0.544,0 0,0.578 0.544,0 0,1.683 0.697,0 L -0.986,0 0,0 z"
             style="fill:#7b7979;fill-opacity:1;fill-rule:nonzero;stroke:none"
             id="path3632" />
        </g>
        <g
           id="g3634"
           transform="matrix(1.25,0,0,-1.25,452.70622,251.51035)">
          <path
             inkscape:connector-curvature="0"
             d="m 0,0 -0.493,0 0.816,-5.101 c 0.136,-0.906 0.243,-1.795 0.323,-2.669 0.113,1.043 0.227,1.933 0.34,2.669 L 1.785,0 1.292,0 l 0,0.578 1.581,0 L 2.873,0 2.414,0 0.901,-9.486 c -0.068,-0.397 -0.187,-0.689 -0.357,-0.875 -0.17,-0.188 -0.448,-0.282 -0.833,-0.282 -0.17,0 -0.352,0.03 -0.544,0.085 l 0,0.579 c 0.147,-0.057 0.3,-0.085 0.459,-0.085 0.181,0 0.317,0.043 0.408,0.127 0.091,0.085 0.158,0.23 0.204,0.434 0.034,0.204 0.023,0.504 -0.034,0.9 L -1.19,0 l -0.459,0 0,0.578 L 0,0.578 0,0 z"
             style="fill:#7b7979;fill-opacity:1;fill-rule:nonzero;stroke:none"
             id="path3636" />
        </g>
        <g
           id="g3638"
           transform="matrix(1.25,0,0,-1.25,461.43922,253.86872)">
          <path
             inkscape:connector-curvature="0"
             d="m 0,0 -0.493,-3.91 1.768,0 L 0.782,0 C 0.601,1.529 0.47,2.89 0.391,4.079 0.278,2.584 0.147,1.224 0,0 m 0.952,-6.732 0,0.663 0.612,0 -0.204,1.512 -1.938,0 -0.187,-1.512 0.595,0 0,-0.663 -1.785,0 0,0.663 0.493,0 1.428,11.237 0.918,0 1.445,-11.237 0.493,0 0,-0.663 -1.87,0 z"
             style="fill:#7b7979;fill-opacity:1;fill-rule:nonzero;stroke:none"
             id="path3640" />
        </g>
        <g
           id="g3642"
           transform="matrix(1.25,0,0,-1.25,467.92047,250.7876)">
          <path
             inkscape:connector-curvature="0"
             d="m 0,0 0,-0.578 -0.986,0 0,-7.566 c 0,-0.214 0.04,-0.368 0.119,-0.459 0.079,-0.09 0.209,-0.135 0.391,-0.135 0.159,0 0.317,0.034 0.476,0.101 l 0,-0.56 c -0.136,-0.091 -0.334,-0.136 -0.595,-0.136 -0.385,0 -0.663,0.088 -0.833,0.264 -0.17,0.174 -0.255,0.472 -0.255,0.891 l 0,7.6 -0.544,0 0,0.578 0.544,0 0,1.683 0.697,0 L -0.986,0 0,0 z"
             style="fill:#7b7979;fill-opacity:1;fill-rule:nonzero;stroke:none"
             id="path3644" />
        </g>
        <g
           id="g3646"
           transform="matrix(1.25,0,0,-1.25,471.15047,250.7876)">
          <path
             inkscape:connector-curvature="0"
             d="m 0,0 0,-0.578 -0.986,0 0,-7.566 c 0,-0.214 0.04,-0.368 0.119,-0.459 0.079,-0.09 0.209,-0.135 0.391,-0.135 0.159,0 0.317,0.034 0.476,0.101 l 0,-0.56 c -0.136,-0.091 -0.334,-0.136 -0.595,-0.136 -0.385,0 -0.663,0.088 -0.833,0.264 -0.17,0.174 -0.255,0.472 -0.255,0.891 l 0,7.6 -0.544,0 0,0.578 0.544,0 0,1.683 0.697,0 L -0.986,0 0,0 z"
             style="fill:#7b7979;fill-opacity:1;fill-rule:nonzero;stroke:none"
             id="path3648" />
        </g>
        <g
           id="g3650"
           transform="matrix(1.25,0,0,-1.25,475.27284,252.74322)">
          <path
             inkscape:connector-curvature="0"
             d="M 0,0 C 0,0.736 -0.312,1.105 -0.935,1.105 -1.559,1.105 -1.87,0.736 -1.87,0 l 0,-6.068 c 0,-0.738 0.311,-1.106 0.935,-1.106 0.623,0 0.935,0.368 0.935,1.106 L 0,0 z m 0.697,-6.001 c 0,-1.179 -0.544,-1.768 -1.632,-1.768 -1.077,0 -1.615,0.589 -1.615,1.768 l 0,5.934 c 0,1.177 0.538,1.767 1.615,1.767 1.088,0 1.632,-0.59 1.632,-1.767 l 0,-5.934 z"
             style="fill:#7b7979;fill-opacity:1;fill-rule:nonzero;stroke:none"
             id="path3652" />
        </g>
        <g
           id="g3654"
           transform="matrix(1.25,0,0,-1.25,477.03609,251.51035)">
          <path
             inkscape:connector-curvature="0"
             d="m 0,0 0,0.578 1.122,0 0,-0.799 C 1.213,0.051 1.372,0.274 1.598,0.45 1.825,0.626 2.091,0.714 2.397,0.714 2.782,0.714 3.08,0.589 3.29,0.34 3.5,0.091 3.604,-0.34 3.604,-0.952 l 0,-3.162 -0.646,0 0,3.128 c 0,0.43 -0.059,0.722 -0.178,0.876 C 2.661,0.042 2.459,0.119 2.176,0.119 1.881,0.119 1.638,-0.003 1.445,-0.247 1.252,-0.49 1.156,-0.776 1.156,-1.105 l 0,-6.936 0.476,0 0,-0.578 -1.632,0 0,0.578 0.476,0 L 0.476,0 0,0 z"
             style="fill:#7b7979;fill-opacity:1;fill-rule:nonzero;stroke:none"
             id="path3656" />
        </g>
        <g
           id="g3658"
           transform="matrix(1.25,0,0,-1.25,482.13622,251.51035)">
          <path
             inkscape:connector-curvature="0"
             d="m 0,0 0,0.578 1.122,0 0,-0.833 c 0.102,0.283 0.269,0.516 0.502,0.696 0.232,0.182 0.501,0.273 0.807,0.273 0.861,0 1.292,-0.556 1.292,-1.666 l 0,-7.089 0.476,0 0,-0.578 -1.632,0 0,0.578 0.476,0 0,7.055 c 0,0.419 -0.065,0.708 -0.195,0.867 C 2.717,0.039 2.505,0.119 2.21,0.119 1.916,0.119 1.666,-0.003 1.462,-0.247 1.258,-0.49 1.156,-0.776 1.156,-1.105 l 0,-6.936 0.476,0 0,-0.578 -1.632,0 0,0.578 0.476,0 L 0.476,0 0,0 z"
             style="fill:#7b7979;fill-opacity:1;fill-rule:nonzero;stroke:none"
             id="path3660" />
        </g>
        <g
           id="g3662"
           transform="matrix(1.25,0,0,-1.25,489.04234,255.88772)">
          <path
             inkscape:connector-curvature="0"
             d="m 0,0 1.87,0 0,2.516 C 1.87,3.252 1.558,3.621 0.935,3.621 0.312,3.621 0,3.252 0,2.516 L 0,0 z m 2.516,-0.595 -2.516,0 0,-2.958 c 0,-0.737 0.312,-1.105 0.935,-1.105 0.623,0 0.935,0.368 0.935,1.105 l 0,1.836 0.646,0 0,-1.768 c 0,-1.179 -0.533,-1.768 -1.598,-1.768 -1.065,0 -1.598,0.589 -1.598,1.768 l 0,5.933 c 0,1.178 0.533,1.768 1.598,1.768 1.065,0 1.598,-0.59 1.598,-1.768 l 0,-3.043 z"
             style="fill:#7b7979;fill-opacity:1;fill-rule:nonzero;stroke:none"
             id="path3664" />
        </g>
        <g
           id="g3666"
           transform="matrix(1.25,0,0,-1.25,494.82234,251.51035)">
          <path
             inkscape:connector-curvature="0"
             d="m 0,0 -0.493,0 0.816,-5.101 c 0.136,-0.906 0.243,-1.795 0.323,-2.669 0.113,1.043 0.227,1.933 0.34,2.669 L 1.785,0 1.292,0 l 0,0.578 1.581,0 L 2.873,0 2.414,0 0.901,-9.486 c -0.068,-0.397 -0.187,-0.689 -0.357,-0.875 -0.17,-0.188 -0.448,-0.282 -0.833,-0.282 -0.17,0 -0.352,0.03 -0.544,0.085 l 0,0.579 c 0.147,-0.057 0.3,-0.085 0.459,-0.085 0.181,0 0.317,0.043 0.408,0.127 0.091,0.085 0.158,0.23 0.204,0.434 0.034,0.204 0.023,0.504 -0.034,0.9 L -1.19,0 l -0.459,0 0,0.578 L 0,0.578 0,0 z"
             style="fill:#7b7979;fill-opacity:1;fill-rule:nonzero;stroke:none"
             id="path3668" />
        </g>
        <g
           id="g3670"
           transform="matrix(1.25,0,0,-1.25,376.01259,250.10159)">
          <path
             inkscape:connector-curvature="0"
             d="M 0,0 C 0.046,0.168 0.035,0.294 -0.035,0.378 -0.105,0.462 -0.206,0.504 -0.336,0.504 -0.579,0.495 -0.831,0.343 -1.092,0.049 -1.354,-0.245 -1.601,-0.588 -1.834,-0.98 -2.067,-1.372 -2.271,-1.764 -2.443,-2.156 -2.616,-2.548 -2.74,-2.847 -2.814,-3.052 l 1.232,0 c 0.103,0 0.14,-0.019 0.112,-0.056 -0.028,-0.038 -0.112,-0.07 -0.252,-0.098 -0.093,-0.019 -0.198,-0.04 -0.315,-0.063 -0.117,-0.023 -0.231,-0.042 -0.343,-0.056 -0.112,-0.014 -0.217,-0.026 -0.315,-0.035 -0.098,-0.01 -0.171,-0.014 -0.217,-0.014 -0.122,-0.299 -0.238,-0.691 -0.35,-1.176 -0.112,-0.486 -0.206,-0.999 -0.28,-1.54 -0.019,-0.168 -0.044,-0.389 -0.077,-0.665 -0.033,-0.275 -0.054,-0.56 -0.063,-0.854 -0.009,-0.294 0.009,-0.572 0.056,-0.833 0.046,-0.261 0.135,-0.457 0.266,-0.588 0.074,-0.074 0.149,-0.124 0.224,-0.147 0.074,-0.023 0.084,-0.049 0.028,-0.077 -0.075,-0.028 -0.168,-0.033 -0.28,-0.014 -0.112,0.018 -0.224,0.065 -0.336,0.14 -0.112,0.075 -0.213,0.173 -0.301,0.294 -0.089,0.121 -0.142,0.275 -0.161,0.462 -0.038,0.336 -0.028,0.74 0.028,1.211 0.056,0.471 0.133,0.947 0.231,1.428 0.098,0.481 0.203,0.931 0.315,1.351 0.112,0.42 0.205,0.737 0.28,0.952 -0.112,-0.019 -0.206,-0.014 -0.28,0.014 -0.075,0.028 -0.129,0.063 -0.161,0.105 -0.033,0.042 -0.049,0.084 -0.049,0.126 0,0.042 0.014,0.063 0.042,0.063 0.074,0.018 0.17,0.028 0.287,0.028 0.117,0 0.198,0.009 0.245,0.028 0.065,0.177 0.151,0.406 0.259,0.686 0.107,0.28 0.233,0.574 0.378,0.882 0.144,0.308 0.303,0.616 0.476,0.924 0.173,0.308 0.364,0.574 0.574,0.798 0.21,0.224 0.434,0.392 0.672,0.504 0.238,0.112 0.488,0.13 0.749,0.056 C -0.038,0.756 0.04,0.705 0.091,0.63 0.142,0.555 0.175,0.476 0.189,0.392 0.203,0.308 0.193,0.229 0.161,0.154 0.128,0.079 0.074,0.028 0,0"
             style="fill:#7b7979;fill-opacity:1;fill-rule:nonzero;stroke:none"
             id="path3672" />
        </g>
        <g
           id="g3674"
           transform="matrix(1.25,0,0,-1.25,376.29209,255.05397)">
          <path
             inkscape:connector-curvature="0"
             d="M 0,0 C -0.149,0.028 -0.266,0.074 -0.35,0.14 -0.434,0.205 -0.495,0.271 -0.532,0.336 -0.569,0.42 -0.593,0.508 -0.602,0.602 -0.686,0.583 -0.775,0.522 -0.868,0.42 -0.961,0.317 -1.05,0.191 -1.134,0.042 c -0.084,-0.149 -0.163,-0.315 -0.238,-0.497 -0.075,-0.182 -0.135,-0.367 -0.182,-0.553 -0.093,-0.336 -0.124,-0.609 -0.091,-0.819 0.033,-0.21 0.105,-0.343 0.217,-0.399 0.112,-0.056 0.252,-0.033 0.42,0.07 0.168,0.102 0.336,0.289 0.504,0.56 0.084,0.13 0.159,0.277 0.224,0.441 0.065,0.163 0.121,0.322 0.168,0.476 0.047,0.154 0.079,0.291 0.098,0.413 C 0.004,-0.145 0.009,-0.056 0,0 M 1.54,0.224 C 1.577,0.224 1.586,0.203 1.568,0.161 1.549,0.119 1.502,0.074 1.428,0.028 1.241,-0.065 1.031,-0.117 0.798,-0.126 0.564,-0.136 0.392,-0.117 0.28,-0.07 0.298,-0.201 0.261,-0.416 0.168,-0.714 0.075,-1.013 -0.056,-1.307 -0.224,-1.596 c -0.261,-0.458 -0.53,-0.742 -0.805,-0.854 -0.275,-0.112 -0.513,-0.103 -0.714,0.028 -0.201,0.13 -0.336,0.364 -0.406,0.7 -0.07,0.336 -0.03,0.723 0.119,1.162 0.047,0.149 0.11,0.317 0.189,0.504 0.079,0.186 0.173,0.361 0.28,0.525 0.107,0.163 0.228,0.303 0.364,0.42 0.135,0.116 0.282,0.179 0.441,0.189 0.065,0.074 0.156,0.107 0.273,0.098 C -0.366,1.167 -0.25,1.125 -0.133,1.05 -0.017,0.975 0.088,0.879 0.182,0.763 0.275,0.646 0.327,0.522 0.336,0.392 0.42,0.298 0.511,0.238 0.609,0.21 0.707,0.182 0.807,0.168 0.91,0.168 c 0.103,0 0.208,0.009 0.315,0.028 0.107,0.018 0.212,0.028 0.315,0.028"
             style="fill:#7b7979;fill-opacity:1;fill-rule:nonzero;stroke:none"
             id="path3676" />
        </g>
        <g
           id="g3678"
           transform="matrix(1.25,0,0,-1.25,380.82397,254.65172)">
          <path
             inkscape:connector-curvature="0"
             d="M 0,0 C -0.084,0.168 -0.194,0.254 -0.329,0.259 -0.464,0.264 -0.611,0.212 -0.77,0.105 -0.929,-0.002 -1.092,-0.154 -1.26,-0.35 -1.428,-0.546 -1.587,-0.761 -1.736,-0.994 -1.83,-1.134 -1.914,-1.283 -1.988,-1.442 -2.063,-1.601 -2.13,-1.755 -2.191,-1.904 -2.252,-2.053 -2.303,-2.189 -2.345,-2.31 c -0.042,-0.121 -0.072,-0.219 -0.091,-0.294 -0.019,-0.084 -0.07,-0.119 -0.154,-0.105 -0.084,0.014 -0.117,0.058 -0.098,0.133 0.028,0.131 0.063,0.338 0.105,0.623 0.042,0.285 0.082,0.581 0.119,0.889 0.037,0.308 0.07,0.595 0.098,0.861 0.028,0.266 0.042,0.446 0.042,0.539 0.009,0.093 0.056,0.17 0.14,0.231 0.084,0.06 0.175,0.102 0.273,0.126 0.098,0.023 0.182,0.021 0.252,-0.007 0.07,-0.028 0.091,-0.089 0.063,-0.182 C -1.615,0.448 -1.643,0.345 -1.68,0.196 -1.717,0.046 -1.759,-0.112 -1.806,-0.28 c -0.047,-0.168 -0.091,-0.327 -0.133,-0.476 -0.042,-0.149 -0.077,-0.252 -0.105,-0.308 0.103,0.187 0.229,0.378 0.378,0.574 0.149,0.196 0.303,0.378 0.462,0.546 0.159,0.168 0.313,0.306 0.462,0.413 0.149,0.107 0.271,0.161 0.364,0.161 0.149,0 0.264,-0.054 0.343,-0.161 C 0.044,0.362 0.096,0.257 0.119,0.154 0.142,0.051 0.142,-0.028 0.119,-0.084 0.096,-0.14 0.056,-0.112 0,0"
             style="fill:#7b7979;fill-opacity:1;fill-rule:nonzero;stroke:none"
             id="path3680" />
        </g>
      </g>
      <g
         id="g4734"
         transform="matrix(0.76474108,0,0,0.76474108,133.53451,57.655592)">
        <g
           transform="matrix(1.5975763,0,0,1.5975763,-345.18432,-137.2571)"
           id="g4255">
          <g
             transform="matrix(1.5767572,0,0,-1.5767572,570.5371,232.13344)"
             id="g3682">
            <path
               id="path3684"
               style="fill:#2d70b8;fill-opacity:1;fill-rule:nonzero;stroke:none"
               d="M 0,0 -0.285,1.771 -1.372,0 0,0 z m -0.491,-1.842 0.048,0.211 c 0.066,0.006 0.143,0.016 0.232,0.027 0.088,0.012 0.157,0.025 0.206,0.041 0.066,0.02 0.116,0.042 0.149,0.066 0.033,0.023 0.049,0.06 0.049,0.108 0,0.018 -0.012,0.121 -0.038,0.313 -0.025,0.191 -0.061,0.461 -0.107,0.807 l -1.594,0 c -0.071,-0.11 -0.145,-0.238 -0.224,-0.384 -0.079,-0.146 -0.14,-0.257 -0.182,-0.333 -0.039,-0.069 -0.075,-0.145 -0.111,-0.229 -0.035,-0.084 -0.052,-0.139 -0.052,-0.167 0,-0.07 0.056,-0.127 0.169,-0.169 0.113,-0.043 0.255,-0.069 0.425,-0.08 l -0.047,-0.211 -1.743,0 0.048,0.211 c 0.055,0.004 0.127,0.017 0.216,0.037 0.089,0.02 0.162,0.047 0.222,0.081 0.075,0.043 0.147,0.096 0.216,0.159 0.069,0.063 0.143,0.157 0.222,0.283 0.369,0.584 0.774,1.234 1.214,1.951 0.44,0.716 0.828,1.343 1.163,1.88 l 0.256,0 0.604,-3.93 c 0.013,-0.079 0.034,-0.146 0.064,-0.2 0.03,-0.055 0.074,-0.106 0.134,-0.152 0.043,-0.03 0.1,-0.055 0.173,-0.076 0.072,-0.019 0.136,-0.031 0.192,-0.033 l -0.048,-0.211 -1.856,0 z"
               inkscape:connector-curvature="0" />
          </g>
          <g
             transform="matrix(1.5767572,0,0,-1.5767572,582.8809,227.88202)"
             id="g3686"
             style="fill:#2d70b8;fill-opacity:1">
            <path
               id="path3688"
               style="fill:#2d70b8;fill-opacity:1;fill-rule:nonzero;stroke:none"
               d="m 0,0 -0.285,-1.231 -0.22,0 c -0.002,0.074 -0.013,0.169 -0.031,0.285 -0.018,0.114 -0.044,0.217 -0.078,0.309 -0.036,0.099 -0.083,0.183 -0.141,0.253 -0.059,0.071 -0.128,0.113 -0.209,0.125 -0.064,0.008 -0.145,0.015 -0.244,0.019 -0.099,0.005 -0.191,0.007 -0.276,0.007 l -0.201,0 -0.846,-3.663 c -0.005,-0.017 -0.008,-0.036 -0.01,-0.055 -0.002,-0.021 -0.003,-0.04 -0.003,-0.06 0,-0.051 0.01,-0.093 0.029,-0.126 0.019,-0.033 0.055,-0.062 0.109,-0.088 0.042,-0.017 0.119,-0.038 0.232,-0.062 0.111,-0.025 0.202,-0.038 0.273,-0.04 l -0.051,-0.211 -2.145,0 0.051,0.211 c 0.065,0.004 0.157,0.013 0.278,0.025 0.122,0.013 0.21,0.03 0.266,0.048 0.085,0.032 0.149,0.076 0.192,0.132 0.042,0.055 0.072,0.121 0.089,0.198 l 0.854,3.691 -0.17,0 c -0.064,0 -0.144,-0.002 -0.24,-0.005 -0.097,-0.003 -0.195,-0.01 -0.295,-0.021 -0.071,-0.009 -0.153,-0.051 -0.247,-0.127 -0.094,-0.075 -0.187,-0.164 -0.282,-0.266 -0.089,-0.101 -0.17,-0.202 -0.243,-0.306 -0.073,-0.104 -0.129,-0.194 -0.17,-0.273 l -0.223,0 L -3.953,0 0,0 z"
               inkscape:connector-curvature="0" />
          </g>
          <g
             transform="matrix(1.5767572,0,0,-1.5767572,586.74427,230.76606)"
             id="g3690"
             style="fill:#2d70b8;fill-opacity:1">
            <path
               id="path3692"
               style="fill:#2d70b8;fill-opacity:1;fill-rule:nonzero;stroke:none"
               d="m 0,0 c 0,-0.06 -0.009,-0.126 -0.026,-0.197 -0.017,-0.072 -0.041,-0.131 -0.073,-0.177 -0.039,-0.058 -0.081,-0.103 -0.127,-0.133 -0.045,-0.031 -0.111,-0.047 -0.196,-0.047 -0.116,0 -0.202,0.03 -0.259,0.087 -0.058,0.057 -0.087,0.121 -0.087,0.192 0,0.066 0.016,0.14 0.048,0.222 0.032,0.082 0.065,0.163 0.099,0.244 -0.025,0 -0.067,-0.006 -0.126,-0.02 C -0.805,0.157 -0.876,0.13 -0.959,0.089 -1.042,0.049 -1.136,-0.013 -1.241,-0.094 -1.347,-0.175 -1.459,-0.282 -1.578,-0.417 l -0.515,-2.292 -0.597,0 0.467,2.074 c 0.01,0.052 0.026,0.129 0.046,0.231 0.02,0.102 0.031,0.178 0.031,0.227 0,0.12 -0.021,0.2 -0.062,0.24 -0.04,0.041 -0.121,0.061 -0.242,0.061 -0.047,0 -0.107,-0.008 -0.179,-0.023 -0.073,-0.017 -0.129,-0.03 -0.17,-0.04 l 0.049,0.205 c 0.166,0.074 0.312,0.13 0.44,0.166 0.128,0.036 0.238,0.053 0.33,0.053 0.17,0 0.292,-0.046 0.365,-0.138 0.072,-0.093 0.108,-0.233 0.108,-0.418 l 0.02,0 c 0.253,0.219 0.445,0.373 0.577,0.461 0.131,0.088 0.268,0.131 0.411,0.131 0.068,0 0.134,-0.008 0.198,-0.026 C -0.237,0.479 -0.183,0.449 -0.138,0.409 -0.091,0.364 -0.056,0.312 -0.034,0.254 -0.011,0.195 0,0.11 0,0"
               inkscape:connector-curvature="0" />
          </g>
          <g
             transform="matrix(1.5767572,0,0,-1.5767572,590.26501,234.33223)"
             id="g3694"
             style="fill:#2d70b8;fill-opacity:1">
            <path
               id="path3696"
               style="fill:#2d70b8;fill-opacity:1;fill-rule:nonzero;stroke:none"
               d="m 0,0 -0.02,0 c -0.098,-0.079 -0.191,-0.151 -0.281,-0.217 -0.09,-0.066 -0.178,-0.122 -0.265,-0.167 -0.103,-0.051 -0.196,-0.088 -0.279,-0.11 -0.083,-0.023 -0.192,-0.033 -0.326,-0.033 -0.205,0 -0.364,0.058 -0.476,0.177 -0.114,0.119 -0.17,0.274 -0.17,0.465 0,0.052 0.004,0.113 0.013,0.183 0.008,0.07 0.028,0.175 0.06,0.313 l 0.248,1.014 c 0.022,0.094 0.039,0.177 0.053,0.249 0.014,0.073 0.021,0.143 0.021,0.208 0,0.12 -0.02,0.199 -0.059,0.238 -0.04,0.04 -0.12,0.06 -0.241,0.06 -0.047,0 -0.107,-0.009 -0.179,-0.027 C -1.973,2.335 -2.029,2.32 -2.07,2.31 l 0.048,0.206 c 0.167,0.075 0.313,0.131 0.44,0.171 0.127,0.038 0.228,0.057 0.305,0.057 0.171,0 0.296,-0.04 0.376,-0.12 0.08,-0.079 0.12,-0.193 0.12,-0.34 0,-0.039 -0.004,-0.091 -0.013,-0.157 C -0.802,2.061 -0.815,1.995 -0.832,1.929 L -1.114,0.745 C -1.136,0.656 -1.153,0.572 -1.167,0.494 -1.181,0.417 -1.187,0.357 -1.187,0.316 c 0,-0.142 0.03,-0.255 0.092,-0.338 0.062,-0.083 0.16,-0.124 0.294,-0.124 0.136,0 0.276,0.035 0.42,0.106 0.144,0.071 0.288,0.18 0.433,0.325 L 0.609,2.693 1.167,2.731 1.205,2.684 0.729,0.624 C 0.708,0.536 0.689,0.448 0.672,0.36 0.655,0.271 0.647,0.209 0.647,0.173 c 0,-0.121 0.026,-0.204 0.078,-0.248 0.052,-0.043 0.139,-0.066 0.26,-0.066 0.04,0 0.098,0.007 0.173,0.02 0.074,0.013 0.132,0.026 0.172,0.041 L 1.282,-0.284 C 1.105,-0.356 0.958,-0.411 0.839,-0.447 0.721,-0.483 0.611,-0.502 0.511,-0.502 c -0.172,0 -0.301,0.05 -0.385,0.15 C 0.042,-0.251 0,-0.134 0,0"
               inkscape:connector-curvature="0" />
          </g>
          <g
             transform="matrix(1.5767572,0,0,-1.5767572,595.67046,227.30777)"
             id="g3698"
             style="fill:#2d70b8;fill-opacity:1">
            <path
               id="path3700"
               style="fill:#2d70b8;fill-opacity:1;fill-rule:nonzero;stroke:none"
               d="m 0,0 -0.895,-3.851 c -0.019,-0.081 -0.037,-0.162 -0.054,-0.243 -0.017,-0.081 -0.026,-0.146 -0.026,-0.198 0,-0.121 0.028,-0.204 0.082,-0.249 0.054,-0.045 0.142,-0.067 0.264,-0.067 0.042,0 0.105,0.004 0.19,0.015 0.084,0.011 0.147,0.024 0.189,0.039 l -0.048,-0.205 c -0.192,-0.076 -0.339,-0.131 -0.443,-0.163 -0.103,-0.032 -0.22,-0.048 -0.35,-0.048 -0.17,0 -0.3,0.044 -0.388,0.133 -0.089,0.089 -0.133,0.198 -0.133,0.328 0,0.049 0.005,0.101 0.014,0.154 0.01,0.053 0.023,0.121 0.04,0.202 l 0.78,3.37 c 0.015,0.065 0.025,0.111 0.03,0.137 0.005,0.026 0.008,0.057 0.008,0.096 0,0.076 -0.013,0.136 -0.038,0.178 -0.026,0.041 -0.062,0.072 -0.11,0.094 -0.045,0.019 -0.101,0.032 -0.17,0.039 -0.068,0.006 -0.138,0.013 -0.209,0.022 l 0.045,0.195 1.19,0.07 L 0,0 z"
               inkscape:connector-curvature="0" />
          </g>
          <g
             transform="matrix(1.5767572,0,0,-1.5767572,599.20129,234.30604)"
             id="g3702"
             style="fill:#2d70b8;fill-opacity:1">
            <path
               id="path3704"
               style="fill:#2d70b8;fill-opacity:1;fill-rule:nonzero;stroke:none"
               d="m 0,0 -0.019,0 c -0.196,-0.165 -0.383,-0.294 -0.56,-0.388 -0.177,-0.093 -0.379,-0.14 -0.605,-0.14 -0.205,0 -0.367,0.059 -0.486,0.177 -0.12,0.119 -0.18,0.274 -0.18,0.466 0,0.051 0.005,0.112 0.014,0.182 0.008,0.07 0.028,0.175 0.06,0.313 l 0.249,0.998 c 0.023,0.096 0.041,0.18 0.054,0.251 0.013,0.072 0.019,0.141 0.019,0.206 0,0.121 -0.02,0.2 -0.059,0.239 -0.039,0.04 -0.12,0.059 -0.241,0.059 -0.047,0 -0.106,-0.009 -0.179,-0.027 C -2.005,2.318 -2.062,2.304 -2.102,2.293 l 0.048,0.206 c 0.166,0.075 0.313,0.132 0.44,0.171 0.127,0.038 0.228,0.058 0.305,0.058 0.171,0 0.297,-0.039 0.379,-0.116 0.082,-0.076 0.123,-0.191 0.123,-0.344 0,-0.039 -0.004,-0.091 -0.012,-0.158 C -0.828,2.044 -0.841,1.979 -0.858,1.912 L -1.148,0.745 C -1.169,0.655 -1.187,0.571 -1.202,0.494 -1.217,0.416 -1.225,0.356 -1.225,0.316 c 0,-0.142 0.035,-0.255 0.104,-0.338 0.07,-0.083 0.172,-0.125 0.307,-0.125 0.155,0 0.308,0.038 0.456,0.115 0.149,0.076 0.288,0.182 0.418,0.316 L 0.589,2.677 1.141,2.715 1.179,2.667 0.63,0.163 C 0.548,-0.204 0.445,-0.518 0.319,-0.777 0.193,-1.038 0.046,-1.248 -0.122,-1.407 c -0.177,-0.169 -0.368,-0.29 -0.573,-0.365 -0.204,-0.075 -0.438,-0.112 -0.7,-0.112 -0.182,0 -0.325,0.013 -0.432,0.038 -0.107,0.026 -0.191,0.061 -0.253,0.106 -0.062,0.043 -0.103,0.091 -0.125,0.143 -0.021,0.054 -0.031,0.108 -0.031,0.16 0,0.092 0.028,0.173 0.083,0.244 0.055,0.07 0.135,0.105 0.24,0.105 0.079,0 0.146,-0.022 0.202,-0.067 0.055,-0.044 0.1,-0.094 0.134,-0.147 0.038,-0.057 0.073,-0.123 0.105,-0.195 0.032,-0.072 0.058,-0.13 0.077,-0.173 l 0.077,0 c 0.122,0 0.25,0.03 0.385,0.09 0.136,0.059 0.26,0.152 0.373,0.278 0.122,0.136 0.231,0.313 0.328,0.528 C -0.135,-0.559 -0.058,-0.301 0,0"
               inkscape:connector-curvature="0" />
          </g>
          <g
             transform="matrix(1.5767572,0,0,-1.5767572,608.85655,230.68911)"
             id="g3706"
             style="fill:#2d70b8;fill-opacity:1">
            <path
               id="path3708"
               style="fill:#2d70b8;fill-opacity:1;fill-rule:nonzero;stroke:none"
               d="M 0,0 C 0.087,0.126 0.149,0.26 0.186,0.401 0.222,0.544 0.24,0.677 0.24,0.801 0.24,0.898 0.227,0.991 0.2,1.079 0.173,1.167 0.128,1.246 0.064,1.316 0,1.385 -0.082,1.438 -0.183,1.478 c -0.1,0.04 -0.226,0.059 -0.378,0.059 l -0.416,0 -0.463,-2.031 0.362,0 c 0.247,0 0.461,0.042 0.64,0.124 C -0.259,-0.288 -0.113,-0.165 0,0 M 1.024,0.865 C 1.024,0.607 0.967,0.377 0.853,0.175 0.738,-0.028 0.591,-0.196 0.412,-0.331 0.224,-0.472 0.014,-0.577 -0.219,-0.648 -0.452,-0.721 -0.695,-0.756 -0.95,-0.756 l -0.554,0 -0.324,-1.4 c -0.004,-0.02 -0.007,-0.04 -0.009,-0.062 -0.002,-0.021 -0.003,-0.039 -0.003,-0.053 0,-0.048 0.008,-0.089 0.025,-0.125 0.017,-0.037 0.051,-0.066 0.103,-0.087 0.032,-0.015 0.096,-0.029 0.193,-0.041 0.097,-0.013 0.184,-0.021 0.261,-0.023 l -0.048,-0.211 -1.949,0 0.047,0.211 c 0.054,0.004 0.129,0.012 0.228,0.023 0.098,0.01 0.169,0.024 0.214,0.041 0.077,0.03 0.135,0.073 0.174,0.129 0.04,0.057 0.067,0.123 0.082,0.197 l 0.764,3.307 c 0.004,0.019 0.008,0.04 0.011,0.064 0.004,0.023 0.005,0.046 0.005,0.067 0,0.045 -0.008,0.085 -0.025,0.122 -0.017,0.036 -0.05,0.064 -0.097,0.083 -0.068,0.026 -0.14,0.045 -0.217,0.058 -0.077,0.013 -0.147,0.02 -0.211,0.025 l 0.048,0.211 2.02,0 C 0.153,1.78 0.45,1.698 0.68,1.535 0.909,1.372 1.024,1.149 1.024,0.865"
               inkscape:connector-curvature="0" />
          </g>
          <g
             transform="matrix(1.5767572,0,0,-1.5767572,614.96429,230.76606)"
             id="g3710"
             style="fill:#2d70b8;fill-opacity:1">
            <path
               id="path3712"
               style="fill:#2d70b8;fill-opacity:1;fill-rule:nonzero;stroke:none"
               d="m 0,0 c 0,-0.06 -0.009,-0.126 -0.026,-0.197 -0.017,-0.072 -0.041,-0.131 -0.073,-0.177 -0.039,-0.058 -0.081,-0.103 -0.127,-0.133 -0.045,-0.031 -0.111,-0.047 -0.196,-0.047 -0.116,0 -0.202,0.03 -0.259,0.087 -0.058,0.057 -0.087,0.121 -0.087,0.192 0,0.066 0.016,0.14 0.048,0.222 0.032,0.082 0.065,0.163 0.099,0.244 -0.025,0 -0.067,-0.006 -0.126,-0.02 C -0.805,0.157 -0.876,0.13 -0.959,0.089 -1.042,0.049 -1.136,-0.013 -1.241,-0.094 -1.347,-0.175 -1.459,-0.282 -1.578,-0.417 l -0.515,-2.292 -0.597,0 0.467,2.074 c 0.01,0.052 0.026,0.129 0.046,0.231 0.02,0.102 0.031,0.178 0.031,0.227 0,0.12 -0.021,0.2 -0.062,0.24 -0.04,0.041 -0.121,0.061 -0.242,0.061 -0.047,0 -0.107,-0.008 -0.179,-0.023 -0.073,-0.017 -0.129,-0.03 -0.17,-0.04 l 0.049,0.205 c 0.166,0.074 0.312,0.13 0.44,0.166 0.128,0.036 0.238,0.053 0.33,0.053 0.17,0 0.292,-0.046 0.365,-0.138 0.072,-0.093 0.108,-0.233 0.108,-0.418 l 0.02,0 c 0.253,0.219 0.445,0.373 0.577,0.461 0.131,0.088 0.268,0.131 0.411,0.131 0.068,0 0.134,-0.008 0.198,-0.026 C -0.237,0.479 -0.183,0.449 -0.138,0.409 -0.091,0.364 -0.056,0.312 -0.034,0.254 -0.011,0.195 0,0.11 0,0"
               inkscape:connector-curvature="0" />
          </g>
          <g
             transform="matrix(1.5767572,0,0,-1.5767572,619.09933,231.73626)"
             id="g3714"
             style="fill:#2d70b8;fill-opacity:1">
            <path
               id="path3716"
               style="fill:#2d70b8;fill-opacity:1;fill-rule:nonzero;stroke:none"
               d="m 0,0 c 0,0.303 -0.054,0.53 -0.162,0.682 -0.107,0.151 -0.262,0.227 -0.465,0.227 -0.177,0 -0.344,-0.055 -0.5,-0.163 C -1.284,0.637 -1.419,0.46 -1.532,0.215 -1.62,0.028 -1.684,-0.178 -1.724,-0.405 c -0.041,-0.228 -0.061,-0.437 -0.061,-0.629 0,-0.306 0.053,-0.536 0.159,-0.694 0.105,-0.157 0.265,-0.235 0.478,-0.235 0.19,0 0.358,0.06 0.505,0.18 0.147,0.119 0.267,0.27 0.358,0.454 0.092,0.18 0.162,0.385 0.211,0.616 C -0.024,-0.481 0,-0.243 0,0 M 0.652,-0.122 C 0.652,-0.374 0.61,-0.626 0.524,-0.877 0.439,-1.129 0.315,-1.351 0.153,-1.54 -0.011,-1.736 -0.208,-1.894 -0.44,-2.013 c -0.231,-0.118 -0.499,-0.176 -0.804,-0.176 -0.354,0 -0.641,0.113 -0.862,0.341 -0.221,0.229 -0.331,0.536 -0.331,0.922 0,0.284 0.047,0.549 0.141,0.794 0.093,0.246 0.219,0.461 0.377,0.648 0.16,0.185 0.357,0.335 0.593,0.449 0.236,0.114 0.491,0.172 0.766,0.172 0.38,0 0.677,-0.116 0.891,-0.348 0.214,-0.231 0.321,-0.535 0.321,-0.911"
               inkscape:connector-curvature="0" />
          </g>
          <g
             transform="matrix(1.5767572,0,0,-1.5767572,624.71275,231.13109)"
             id="g3718"
             style="fill:#2d70b8;fill-opacity:1">
            <path
               id="path3720"
               style="fill:#2d70b8;fill-opacity:1;fill-rule:nonzero;stroke:none"
               d="M 0,0 C 0,0.06 -0.009,0.121 -0.027,0.185 -0.045,0.247 -0.079,0.306 -0.128,0.358 -0.175,0.41 -0.234,0.45 -0.307,0.48 -0.379,0.511 -0.472,0.525 -0.584,0.525 -0.749,0.525 -0.903,0.476 -1.049,0.376 -1.195,0.277 -1.326,0.142 -1.443,-0.032 -1.552,-0.194 -1.64,-0.391 -1.708,-0.621 c -0.069,-0.231 -0.103,-0.462 -0.103,-0.694 0,-0.126 0.009,-0.243 0.027,-0.348 0.019,-0.106 0.05,-0.198 0.095,-0.277 0.044,-0.08 0.104,-0.14 0.177,-0.184 0.074,-0.044 0.169,-0.065 0.287,-0.065 0.149,0 0.297,0.043 0.444,0.128 0.147,0.087 0.287,0.198 0.419,0.332 L 0,0 z m -0.426,-2.046 -0.022,0.007 c -0.043,-0.034 -0.103,-0.082 -0.181,-0.145 -0.078,-0.061 -0.16,-0.116 -0.245,-0.163 -0.098,-0.057 -0.197,-0.104 -0.297,-0.14 -0.1,-0.036 -0.211,-0.055 -0.333,-0.055 -0.309,0 -0.547,0.109 -0.714,0.328 -0.168,0.219 -0.252,0.521 -0.252,0.904 0,0.265 0.049,0.523 0.146,0.772 0.097,0.25 0.23,0.472 0.398,0.666 0.162,0.188 0.356,0.339 0.582,0.453 0.226,0.114 0.463,0.172 0.71,0.172 0.154,0 0.299,-0.021 0.435,-0.06 0.137,-0.04 0.247,-0.086 0.33,-0.139 L 0.716,0.704 0.754,0.656 0.217,-1.865 C 0.136,-2.247 0.032,-2.57 -0.095,-2.834 c -0.126,-0.263 -0.273,-0.472 -0.439,-0.625 -0.171,-0.158 -0.359,-0.27 -0.565,-0.338 -0.206,-0.067 -0.439,-0.1 -0.699,-0.1 -0.177,0 -0.321,0.013 -0.433,0.041 -0.112,0.028 -0.2,0.064 -0.264,0.109 -0.064,0.044 -0.107,0.095 -0.13,0.151 -0.022,0.057 -0.033,0.111 -0.033,0.162 0,0.096 0.029,0.176 0.086,0.242 0.058,0.064 0.136,0.097 0.237,0.097 0.079,0 0.146,-0.023 0.201,-0.069 0.056,-0.046 0.1,-0.095 0.134,-0.149 0.037,-0.055 0.072,-0.121 0.106,-0.198 0.034,-0.077 0.06,-0.135 0.077,-0.173 l 0.096,0 c 0.117,0 0.243,0.027 0.377,0.08 0.135,0.054 0.257,0.14 0.368,0.259 0.113,0.124 0.219,0.29 0.317,0.498 0.097,0.208 0.176,0.475 0.233,0.801"
               inkscape:connector-curvature="0" />
          </g>
          <g
             transform="matrix(1.5767572,0,0,-1.5767572,631.19211,230.76606)"
             id="g3722"
             style="fill:#2d70b8;fill-opacity:1">
            <path
               id="path3724"
               style="fill:#2d70b8;fill-opacity:1;fill-rule:nonzero;stroke:none"
               d="m 0,0 c 0,-0.06 -0.009,-0.126 -0.026,-0.197 -0.017,-0.072 -0.041,-0.131 -0.073,-0.177 -0.039,-0.058 -0.081,-0.103 -0.127,-0.133 -0.045,-0.031 -0.111,-0.047 -0.196,-0.047 -0.116,0 -0.202,0.03 -0.259,0.087 -0.058,0.057 -0.087,0.121 -0.087,0.192 0,0.066 0.016,0.14 0.048,0.222 0.032,0.082 0.065,0.163 0.099,0.244 -0.025,0 -0.067,-0.006 -0.126,-0.02 C -0.805,0.157 -0.876,0.13 -0.959,0.089 -1.042,0.049 -1.136,-0.013 -1.241,-0.094 -1.347,-0.175 -1.459,-0.282 -1.578,-0.417 l -0.515,-2.292 -0.597,0 0.467,2.074 c 0.01,0.052 0.026,0.129 0.046,0.231 0.02,0.102 0.031,0.178 0.031,0.227 0,0.12 -0.021,0.2 -0.062,0.24 -0.04,0.041 -0.121,0.061 -0.242,0.061 -0.047,0 -0.107,-0.008 -0.179,-0.023 -0.073,-0.017 -0.129,-0.03 -0.17,-0.04 l 0.049,0.205 c 0.166,0.074 0.312,0.13 0.44,0.166 0.128,0.036 0.238,0.053 0.33,0.053 0.17,0 0.292,-0.046 0.365,-0.138 0.072,-0.093 0.108,-0.233 0.108,-0.418 l 0.02,0 c 0.253,0.219 0.445,0.373 0.577,0.461 0.131,0.088 0.268,0.131 0.411,0.131 0.068,0 0.134,-0.008 0.198,-0.026 C -0.237,0.479 -0.183,0.449 -0.138,0.409 -0.091,0.364 -0.056,0.312 -0.034,0.254 -0.011,0.195 0,0.11 0,0"
               inkscape:connector-curvature="0" />
          </g>
          <g
             transform="matrix(1.5767572,0,0,-1.5767572,634.8885,230.87076)"
             id="g3726"
             style="fill:#2d70b8;fill-opacity:1">
            <path
               id="path3728"
               style="fill:#2d70b8;fill-opacity:1;fill-rule:nonzero;stroke:none"
               d="m 0,0 c 0,0.083 -0.012,0.148 -0.035,0.196 -0.024,0.048 -0.053,0.083 -0.09,0.107 -0.038,0.025 -0.079,0.042 -0.121,0.048 -0.043,0.006 -0.087,0.009 -0.131,0.009 -0.256,0 -0.492,-0.14 -0.709,-0.421 -0.216,-0.281 -0.353,-0.63 -0.411,-1.05 0.149,0.021 0.318,0.051 0.506,0.091 0.187,0.04 0.343,0.091 0.467,0.155 0.176,0.092 0.308,0.209 0.395,0.352 C -0.043,-0.369 0,-0.198 0,0 m 0.588,-0.079 c 0,-0.227 -0.07,-0.421 -0.212,-0.583 -0.142,-0.162 -0.348,-0.291 -0.619,-0.388 -0.198,-0.072 -0.399,-0.131 -0.601,-0.176 -0.203,-0.045 -0.427,-0.082 -0.672,-0.112 0,-0.337 0.062,-0.595 0.187,-0.772 0.125,-0.178 0.308,-0.267 0.549,-0.267 0.213,0 0.401,0.053 0.564,0.159 0.163,0.107 0.324,0.266 0.482,0.477 l 0.182,-0.134 c -0.171,-0.261 -0.384,-0.469 -0.64,-0.624 -0.256,-0.155 -0.521,-0.233 -0.796,-0.233 -0.378,0 -0.666,0.105 -0.866,0.317 -0.199,0.211 -0.298,0.511 -0.298,0.899 0,0.269 0.042,0.526 0.126,0.77 0.084,0.244 0.207,0.468 0.369,0.671 0.158,0.198 0.352,0.358 0.581,0.48 0.229,0.121 0.482,0.183 0.76,0.183 0.306,0 0.534,-0.063 0.682,-0.188 0.149,-0.125 0.222,-0.285 0.222,-0.479"
               inkscape:connector-curvature="0" />
          </g>
          <g
             transform="matrix(1.5767572,0,0,-1.5767572,637.84334,235.1884)"
             id="g3730"
             style="fill:#2d70b8;fill-opacity:1">
            <path
               id="path3732"
               style="fill:#2d70b8;fill-opacity:1;fill-rule:nonzero;stroke:none"
               d="m 0,0 c -0.315,0 -0.578,0.056 -0.788,0.167 -0.211,0.112 -0.316,0.259 -0.316,0.44 0,0.085 0.032,0.165 0.093,0.24 0.062,0.075 0.138,0.112 0.227,0.112 0.086,0 0.155,-0.02 0.207,-0.06 0.052,-0.039 0.093,-0.086 0.123,-0.138 0.032,-0.056 0.06,-0.121 0.085,-0.199 0.024,-0.077 0.045,-0.139 0.062,-0.188 0.032,-0.036 0.076,-0.07 0.133,-0.101 0.056,-0.031 0.138,-0.046 0.244,-0.046 0.231,0 0.405,0.057 0.523,0.172 0.118,0.117 0.178,0.272 0.178,0.469 0,0.145 -0.056,0.261 -0.167,0.348 C 0.494,1.302 0.328,1.382 0.109,1.454 0.03,1.479 -0.063,1.519 -0.169,1.571 -0.276,1.624 -0.361,1.68 -0.425,1.739 c -0.077,0.069 -0.139,0.15 -0.186,0.244 -0.047,0.094 -0.07,0.205 -0.07,0.333 0,0.274 0.122,0.51 0.366,0.71 0.244,0.2 0.544,0.3 0.9,0.3 0.083,0 0.173,-0.005 0.269,-0.013 C 0.95,3.305 1.056,3.281 1.17,3.242 1.271,3.208 1.356,3.158 1.426,3.091 1.497,3.023 1.532,2.937 1.532,2.83 1.532,2.742 1.502,2.663 1.444,2.592 1.385,2.521 1.308,2.484 1.212,2.484 1.133,2.484 1.068,2.502 1.017,2.536 0.966,2.569 0.923,2.615 0.889,2.673 0.855,2.73 0.827,2.793 0.806,2.858 0.785,2.925 0.761,2.99 0.736,3.054 0.695,3.071 0.659,3.083 0.627,3.089 0.595,3.096 0.552,3.099 0.499,3.099 0.29,3.099 0.132,3.043 0.024,2.931 -0.083,2.818 -0.138,2.685 -0.138,2.531 -0.138,2.382 -0.089,2.269 0.008,2.193 0.105,2.117 0.266,2.038 0.489,1.957 0.779,1.853 0.99,1.733 1.121,1.599 1.252,1.464 1.318,1.297 1.318,1.099 1.318,0.773 1.193,0.51 0.943,0.306 0.694,0.102 0.379,0 0,0"
               inkscape:connector-curvature="0" />
          </g>
          <g
             transform="matrix(1.5767572,0,0,-1.5767572,642.29642,235.1884)"
             id="g3734"
             style="fill:#2d70b8;fill-opacity:1">
            <path
               id="path3736"
               style="fill:#2d70b8;fill-opacity:1;fill-rule:nonzero;stroke:none"
               d="m 0,0 c -0.315,0 -0.578,0.056 -0.788,0.167 -0.211,0.112 -0.316,0.259 -0.316,0.44 0,0.085 0.032,0.165 0.093,0.24 0.062,0.075 0.138,0.112 0.227,0.112 0.086,0 0.155,-0.02 0.207,-0.06 0.052,-0.039 0.093,-0.086 0.123,-0.138 0.032,-0.056 0.06,-0.121 0.085,-0.199 0.024,-0.077 0.045,-0.139 0.062,-0.188 0.032,-0.036 0.076,-0.07 0.133,-0.101 0.056,-0.031 0.138,-0.046 0.244,-0.046 0.231,0 0.405,0.057 0.523,0.172 0.118,0.117 0.178,0.272 0.178,0.469 0,0.145 -0.056,0.261 -0.167,0.348 C 0.494,1.302 0.328,1.382 0.109,1.454 0.03,1.479 -0.063,1.519 -0.169,1.571 -0.276,1.624 -0.361,1.68 -0.425,1.739 c -0.077,0.069 -0.139,0.15 -0.186,0.244 -0.047,0.094 -0.07,0.205 -0.07,0.333 0,0.274 0.122,0.51 0.366,0.71 0.244,0.2 0.544,0.3 0.9,0.3 0.083,0 0.173,-0.005 0.269,-0.013 C 0.95,3.305 1.056,3.281 1.17,3.242 1.271,3.208 1.356,3.158 1.426,3.091 1.497,3.023 1.532,2.937 1.532,2.83 1.532,2.742 1.502,2.663 1.444,2.592 1.385,2.521 1.308,2.484 1.212,2.484 1.133,2.484 1.068,2.502 1.017,2.536 0.966,2.569 0.923,2.615 0.889,2.673 0.855,2.73 0.827,2.793 0.806,2.858 0.785,2.925 0.761,2.99 0.736,3.054 0.695,3.071 0.659,3.083 0.627,3.089 0.595,3.096 0.552,3.099 0.499,3.099 0.29,3.099 0.132,3.043 0.024,2.931 -0.083,2.818 -0.138,2.685 -0.138,2.531 -0.138,2.382 -0.089,2.269 0.008,2.193 0.105,2.117 0.266,2.038 0.489,1.957 0.779,1.853 0.99,1.733 1.121,1.599 1.252,1.464 1.318,1.297 1.318,1.099 1.318,0.773 1.193,0.51 0.943,0.306 0.694,0.102 0.379,0 0,0"
               inkscape:connector-curvature="0" />
          </g>
          <g
             transform="matrix(1.5767572,0,0,-1.5767572,648.06073,228.03907)"
             id="g3738"
             style="fill:#2d70b8;fill-opacity:1">
            <path
               id="path3740"
               style="fill:#2d70b8;fill-opacity:1;fill-rule:nonzero;stroke:none"
               d="m 0,0 c 0,-0.121 -0.04,-0.228 -0.118,-0.317 -0.079,-0.091 -0.177,-0.137 -0.295,-0.137 -0.108,0 -0.202,0.044 -0.281,0.13 -0.079,0.086 -0.118,0.184 -0.118,0.296 0,0.117 0.039,0.219 0.118,0.306 0.079,0.088 0.173,0.132 0.281,0.132 0.122,0 0.221,-0.041 0.298,-0.123 C -0.038,0.204 0,0.109 0,0 m -0.227,-4.09 -0.048,-0.205 c -0.196,-0.079 -0.353,-0.134 -0.47,-0.165 -0.117,-0.03 -0.217,-0.046 -0.301,-0.046 -0.17,0 -0.298,0.044 -0.384,0.133 -0.085,0.089 -0.128,0.198 -0.128,0.328 0,0.049 0.005,0.101 0.013,0.153 0.009,0.054 0.023,0.121 0.042,0.203 l 0.338,1.36 c 0.017,0.075 0.033,0.155 0.049,0.24 0.016,0.086 0.024,0.158 0.024,0.218 0,0.12 -0.019,0.199 -0.059,0.238 -0.039,0.04 -0.12,0.06 -0.241,0.06 -0.046,0 -0.109,-0.008 -0.187,-0.023 -0.077,-0.014 -0.136,-0.027 -0.177,-0.038 l 0.048,0.205 c 0.166,0.075 0.315,0.13 0.448,0.166 0.132,0.036 0.236,0.055 0.313,0.055 0.175,0 0.301,-0.042 0.381,-0.125 0.078,-0.084 0.118,-0.195 0.118,-0.337 0,-0.038 -0.005,-0.091 -0.013,-0.156 C -0.47,-1.893 -0.482,-1.959 -0.5,-2.025 l -0.339,-1.361 c -0.021,-0.083 -0.04,-0.165 -0.056,-0.245 -0.016,-0.08 -0.023,-0.145 -0.023,-0.196 0,-0.122 0.026,-0.205 0.081,-0.25 0.054,-0.045 0.141,-0.068 0.263,-0.068 0.04,0 0.098,0.005 0.173,0.016 0.076,0.011 0.133,0.024 0.174,0.039"
               inkscape:connector-curvature="0" />
          </g>
          <g
             transform="matrix(1.5767572,0,0,-1.5767572,653.2344,230.8785)"
             id="g3742"
             style="fill:#2d70b8;fill-opacity:1">
            <path
               id="path3744"
               style="fill:#2d70b8;fill-opacity:1;fill-rule:nonzero;stroke:none"
               d="m 0,0 c 0,-0.324 -0.049,-0.653 -0.147,-0.987 -0.098,-0.334 -0.232,-0.626 -0.403,-0.876 -0.173,-0.258 -0.378,-0.468 -0.617,-0.629 -0.239,-0.161 -0.501,-0.241 -0.787,-0.241 -0.279,0 -0.502,0.077 -0.669,0.231 -0.166,0.155 -0.249,0.362 -0.249,0.623 0,0.049 0.006,0.105 0.018,0.166 0.012,0.063 0.02,0.104 0.024,0.125 l 0.278,1.025 c 0.021,0.084 0.04,0.165 0.056,0.245 0.016,0.08 0.024,0.15 0.024,0.21 0,0.119 -0.021,0.199 -0.062,0.24 -0.042,0.04 -0.124,0.06 -0.245,0.06 -0.045,0 -0.106,-0.008 -0.182,-0.027 C -3.038,0.146 -3.096,0.133 -3.134,0.122 l 0.048,0.203 c 0.167,0.074 0.314,0.132 0.443,0.172 0.129,0.04 0.232,0.06 0.309,0.06 0.17,0 0.297,-0.039 0.379,-0.119 0.082,-0.079 0.123,-0.193 0.123,-0.342 0,-0.042 -0.003,-0.094 -0.011,-0.156 -0.008,-0.06 -0.021,-0.127 -0.04,-0.2 L -2.19,-1.453 c -0.022,-0.082 -0.038,-0.159 -0.049,-0.234 -0.011,-0.075 -0.015,-0.124 -0.015,-0.144 0,-0.111 0.017,-0.201 0.052,-0.271 0.035,-0.069 0.079,-0.124 0.133,-0.162 0.051,-0.036 0.107,-0.061 0.168,-0.077 0.061,-0.014 0.123,-0.022 0.187,-0.022 0.145,0 0.295,0.046 0.449,0.137 0.155,0.092 0.29,0.212 0.405,0.36 0.126,0.159 0.227,0.339 0.304,0.536 0.077,0.197 0.115,0.415 0.115,0.654 0,0.128 -0.017,0.227 -0.053,0.296 -0.035,0.069 -0.074,0.13 -0.117,0.182 -0.042,0.052 -0.081,0.109 -0.117,0.168 -0.035,0.058 -0.052,0.141 -0.052,0.248 0,0.121 0.04,0.215 0.121,0.278 0.081,0.065 0.167,0.097 0.256,0.097 0.126,0 0.225,-0.051 0.296,-0.153 C -0.036,0.339 0,0.192 0,0"
               inkscape:connector-curvature="0" />
          </g>
          <g
             transform="matrix(1.5767572,0,0,-1.5767572,657.29407,230.87076)"
             id="g3746"
             style="fill:#2d70b8;fill-opacity:1">
            <path
               id="path3748"
               style="fill:#2d70b8;fill-opacity:1;fill-rule:nonzero;stroke:none"
               d="m 0,0 c 0,0.083 -0.012,0.148 -0.035,0.196 -0.024,0.048 -0.053,0.083 -0.09,0.107 -0.038,0.025 -0.079,0.042 -0.121,0.048 -0.043,0.006 -0.087,0.009 -0.131,0.009 -0.256,0 -0.492,-0.14 -0.709,-0.421 -0.216,-0.281 -0.353,-0.63 -0.411,-1.05 0.149,0.021 0.318,0.051 0.506,0.091 0.187,0.04 0.343,0.091 0.467,0.155 0.176,0.092 0.308,0.209 0.395,0.352 C -0.043,-0.369 0,-0.198 0,0 m 0.588,-0.079 c 0,-0.227 -0.07,-0.421 -0.212,-0.583 -0.142,-0.162 -0.348,-0.291 -0.619,-0.388 -0.198,-0.072 -0.399,-0.131 -0.601,-0.176 -0.203,-0.045 -0.427,-0.082 -0.672,-0.112 0,-0.337 0.062,-0.595 0.187,-0.772 0.125,-0.178 0.308,-0.267 0.549,-0.267 0.213,0 0.401,0.053 0.564,0.159 0.163,0.107 0.324,0.266 0.482,0.477 l 0.182,-0.134 c -0.171,-0.261 -0.384,-0.469 -0.64,-0.624 -0.256,-0.155 -0.521,-0.233 -0.796,-0.233 -0.378,0 -0.666,0.105 -0.866,0.317 -0.199,0.211 -0.298,0.511 -0.298,0.899 0,0.269 0.042,0.526 0.126,0.77 0.084,0.244 0.207,0.468 0.369,0.671 0.158,0.198 0.352,0.358 0.581,0.48 0.229,0.121 0.482,0.183 0.76,0.183 0.306,0 0.534,-0.063 0.682,-0.188 0.149,-0.125 0.222,-0.285 0.222,-0.479"
               inkscape:connector-curvature="0" />
          </g>
          <g
             transform="matrix(1.5767572,0,0,-1.5767572,665.32891,232.13344)"
             id="g3750"
             style="fill:#2d70b8;fill-opacity:1">
            <path
               id="path3752"
               style="fill:#2d70b8;fill-opacity:1;fill-rule:nonzero;stroke:none"
               d="M 0,0 -0.285,1.771 -1.372,0 0,0 z m -0.491,-1.842 0.048,0.211 c 0.066,0.006 0.143,0.016 0.232,0.027 0.088,0.012 0.157,0.025 0.206,0.041 0.066,0.02 0.116,0.042 0.149,0.066 0.033,0.023 0.049,0.06 0.049,0.108 0,0.018 -0.012,0.121 -0.038,0.313 -0.025,0.191 -0.061,0.461 -0.107,0.807 l -1.594,0 c -0.071,-0.11 -0.145,-0.238 -0.224,-0.384 -0.079,-0.146 -0.14,-0.257 -0.182,-0.333 -0.039,-0.069 -0.075,-0.145 -0.111,-0.229 -0.035,-0.084 -0.052,-0.139 -0.052,-0.167 0,-0.07 0.056,-0.127 0.169,-0.169 0.113,-0.043 0.255,-0.069 0.425,-0.08 l -0.047,-0.211 -1.743,0 0.048,0.211 c 0.055,0.004 0.127,0.017 0.216,0.037 0.089,0.02 0.162,0.047 0.222,0.081 0.075,0.043 0.147,0.096 0.216,0.159 0.069,0.063 0.143,0.157 0.222,0.283 0.369,0.584 0.774,1.234 1.214,1.951 0.44,0.716 0.828,1.343 1.163,1.88 l 0.256,0 0.604,-3.93 c 0.013,-0.079 0.034,-0.146 0.064,-0.2 0.03,-0.055 0.074,-0.106 0.134,-0.152 0.043,-0.03 0.1,-0.055 0.173,-0.076 0.072,-0.019 0.136,-0.031 0.192,-0.033 l -0.048,-0.211 -1.856,0 z"
               inkscape:connector-curvature="0" />
          </g>
          <g
             transform="matrix(1.5767572,0,0,-1.5767572,671.88917,233.95805)"
             id="g3754"
             style="fill:#2d70b8;fill-opacity:1">
            <path
               id="path3756"
               style="fill:#2d70b8;fill-opacity:1;fill-rule:nonzero;stroke:none"
               d="M 0,0 C 0.108,0.175 0.192,0.374 0.25,0.598 0.309,0.82 0.338,1.057 0.338,1.307 0.338,1.42 0.329,1.533 0.308,1.647 0.288,1.762 0.255,1.856 0.21,1.931 0.164,2.015 0.1,2.079 0.019,2.125 -0.062,2.171 -0.169,2.193 -0.301,2.193 -0.399,2.193 -0.507,2.164 -0.625,2.104 -0.744,2.044 -0.888,1.932 -1.059,1.768 l -0.408,-1.816 c 0.015,-0.122 0.08,-0.235 0.196,-0.341 0.117,-0.105 0.257,-0.158 0.421,-0.158 0.168,0 0.326,0.049 0.473,0.147 C -0.23,-0.302 -0.104,-0.168 0,0 M 0.998,1.322 C 0.998,1.036 0.947,0.766 0.847,0.51 0.747,0.253 0.614,0.031 0.448,-0.156 0.263,-0.363 0.062,-0.518 -0.154,-0.617 -0.371,-0.718 -0.592,-0.768 -0.82,-0.768 c -0.183,0 -0.334,0.023 -0.451,0.067 -0.117,0.045 -0.221,0.1 -0.313,0.167 l -0.187,-0.838 c -0.012,-0.054 -0.022,-0.104 -0.03,-0.15 -0.008,-0.047 -0.011,-0.084 -0.011,-0.113 0,-0.057 0.02,-0.103 0.062,-0.137 0.042,-0.035 0.089,-0.059 0.143,-0.074 0.053,-0.017 0.112,-0.03 0.179,-0.038 0.066,-0.009 0.125,-0.015 0.179,-0.019 l -0.045,-0.201 -1.764,0 0.045,0.201 c 0.068,0.004 0.132,0.009 0.192,0.015 0.059,0.007 0.116,0.018 0.169,0.033 0.067,0.019 0.119,0.054 0.158,0.107 0.04,0.052 0.068,0.117 0.085,0.193 l 0.668,2.946 c 0.017,0.081 0.033,0.162 0.048,0.244 0.015,0.082 0.022,0.153 0.022,0.213 0,0.12 -0.018,0.2 -0.056,0.24 -0.037,0.041 -0.117,0.06 -0.241,0.06 -0.047,0 -0.106,-0.008 -0.178,-0.026 -0.073,-0.018 -0.129,-0.033 -0.17,-0.044 l 0.048,0.205 c 0.162,0.072 0.308,0.128 0.438,0.168 0.13,0.039 0.241,0.059 0.333,0.059 0.149,0 0.262,-0.037 0.339,-0.114 0.077,-0.076 0.125,-0.18 0.144,-0.315 l 0.026,0 c 0.145,0.135 0.3,0.245 0.465,0.333 0.165,0.088 0.33,0.132 0.494,0.132 0.324,0 0.576,-0.111 0.756,-0.332 0.18,-0.221 0.271,-0.518 0.271,-0.892"
               inkscape:connector-curvature="0" />
          </g>
          <g
             transform="matrix(1.5767572,0,0,-1.5767572,677.85971,233.95805)"
             id="g3758"
             style="fill:#2d70b8;fill-opacity:1">
            <path
               id="path3760"
               style="fill:#2d70b8;fill-opacity:1;fill-rule:nonzero;stroke:none"
               d="M 0,0 C 0.108,0.175 0.192,0.374 0.25,0.598 0.309,0.82 0.338,1.057 0.338,1.307 0.338,1.42 0.329,1.533 0.308,1.647 0.288,1.762 0.255,1.856 0.21,1.931 0.164,2.015 0.1,2.079 0.019,2.125 -0.062,2.171 -0.169,2.193 -0.301,2.193 -0.399,2.193 -0.507,2.164 -0.625,2.104 -0.744,2.044 -0.888,1.932 -1.059,1.768 l -0.408,-1.816 c 0.015,-0.122 0.08,-0.235 0.196,-0.341 0.117,-0.105 0.257,-0.158 0.421,-0.158 0.168,0 0.326,0.049 0.473,0.147 C -0.23,-0.302 -0.104,-0.168 0,0 M 0.998,1.322 C 0.998,1.036 0.947,0.766 0.847,0.51 0.747,0.253 0.614,0.031 0.448,-0.156 0.263,-0.363 0.062,-0.518 -0.154,-0.617 -0.371,-0.718 -0.592,-0.768 -0.82,-0.768 c -0.183,0 -0.334,0.023 -0.451,0.067 -0.117,0.045 -0.221,0.1 -0.313,0.167 l -0.187,-0.838 c -0.012,-0.054 -0.022,-0.104 -0.03,-0.15 -0.008,-0.047 -0.011,-0.084 -0.011,-0.113 0,-0.057 0.02,-0.103 0.062,-0.137 0.042,-0.035 0.089,-0.059 0.143,-0.074 0.053,-0.017 0.112,-0.03 0.179,-0.038 0.066,-0.009 0.125,-0.015 0.179,-0.019 l -0.045,-0.201 -1.764,0 0.045,0.201 c 0.068,0.004 0.132,0.009 0.192,0.015 0.059,0.007 0.116,0.018 0.169,0.033 0.067,0.019 0.119,0.054 0.158,0.107 0.04,0.052 0.068,0.117 0.085,0.193 l 0.668,2.946 c 0.017,0.081 0.033,0.162 0.048,0.244 0.015,0.082 0.022,0.153 0.022,0.213 0,0.12 -0.018,0.2 -0.056,0.24 -0.037,0.041 -0.117,0.06 -0.241,0.06 -0.047,0 -0.106,-0.008 -0.178,-0.026 -0.073,-0.018 -0.129,-0.033 -0.17,-0.044 l 0.048,0.205 c 0.162,0.072 0.308,0.128 0.438,0.168 0.13,0.039 0.241,0.059 0.333,0.059 0.149,0 0.262,-0.037 0.339,-0.114 0.077,-0.076 0.125,-0.18 0.144,-0.315 l 0.026,0 c 0.145,0.135 0.3,0.245 0.465,0.333 0.165,0.088 0.33,0.132 0.494,0.132 0.324,0 0.576,-0.111 0.756,-0.332 0.18,-0.221 0.271,-0.518 0.271,-0.892"
               inkscape:connector-curvature="0" />
          </g>
          <g
             transform="matrix(1.5767572,0,0,-1.5767572,684.59642,230.76606)"
             id="g3762"
             style="fill:#2d70b8;fill-opacity:1">
            <path
               id="path3764"
               style="fill:#2d70b8;fill-opacity:1;fill-rule:nonzero;stroke:none"
               d="m 0,0 c 0,-0.06 -0.009,-0.126 -0.026,-0.197 -0.017,-0.072 -0.041,-0.131 -0.073,-0.177 -0.039,-0.058 -0.081,-0.103 -0.127,-0.133 -0.045,-0.031 -0.111,-0.047 -0.196,-0.047 -0.116,0 -0.202,0.03 -0.259,0.087 -0.058,0.057 -0.087,0.121 -0.087,0.192 0,0.066 0.016,0.14 0.048,0.222 0.032,0.082 0.065,0.163 0.099,0.244 -0.025,0 -0.067,-0.006 -0.126,-0.02 C -0.805,0.157 -0.876,0.13 -0.959,0.089 -1.042,0.049 -1.136,-0.013 -1.241,-0.094 -1.347,-0.175 -1.459,-0.282 -1.578,-0.417 l -0.515,-2.292 -0.597,0 0.467,2.074 c 0.01,0.052 0.026,0.129 0.046,0.231 0.02,0.102 0.031,0.178 0.031,0.227 0,0.12 -0.021,0.2 -0.062,0.24 -0.04,0.041 -0.121,0.061 -0.242,0.061 -0.047,0 -0.107,-0.008 -0.179,-0.023 -0.073,-0.017 -0.129,-0.03 -0.17,-0.04 l 0.049,0.205 c 0.166,0.074 0.312,0.13 0.44,0.166 0.128,0.036 0.238,0.053 0.33,0.053 0.17,0 0.292,-0.046 0.365,-0.138 0.072,-0.093 0.108,-0.233 0.108,-0.418 l 0.02,0 c 0.253,0.219 0.445,0.373 0.577,0.461 0.131,0.088 0.268,0.131 0.411,0.131 0.068,0 0.134,-0.008 0.198,-0.026 C -0.237,0.479 -0.183,0.449 -0.138,0.409 -0.091,0.364 -0.056,0.312 -0.034,0.254 -0.011,0.195 0,0.11 0,0"
               inkscape:connector-curvature="0" />
          </g>
          <g
             transform="matrix(1.5767572,0,0,-1.5767572,688.73146,231.73626)"
             id="g3766"
             style="fill:#2d70b8;fill-opacity:1">
            <path
               id="path3768"
               style="fill:#2d70b8;fill-opacity:1;fill-rule:nonzero;stroke:none"
               d="m 0,0 c 0,0.303 -0.054,0.53 -0.162,0.682 -0.107,0.151 -0.262,0.227 -0.465,0.227 -0.177,0 -0.344,-0.055 -0.5,-0.163 C -1.284,0.637 -1.419,0.46 -1.532,0.215 -1.62,0.028 -1.684,-0.178 -1.724,-0.405 c -0.041,-0.228 -0.061,-0.437 -0.061,-0.629 0,-0.306 0.053,-0.536 0.159,-0.694 0.105,-0.157 0.265,-0.235 0.478,-0.235 0.19,0 0.358,0.06 0.505,0.18 0.147,0.119 0.267,0.27 0.358,0.454 0.092,0.18 0.162,0.385 0.211,0.616 C -0.024,-0.481 0,-0.243 0,0 M 0.652,-0.122 C 0.652,-0.374 0.61,-0.626 0.524,-0.877 0.439,-1.129 0.315,-1.351 0.153,-1.54 -0.011,-1.736 -0.208,-1.894 -0.44,-2.013 c -0.231,-0.118 -0.499,-0.176 -0.804,-0.176 -0.354,0 -0.641,0.113 -0.862,0.341 -0.221,0.229 -0.331,0.536 -0.331,0.922 0,0.284 0.047,0.549 0.141,0.794 0.093,0.246 0.219,0.461 0.377,0.648 0.16,0.185 0.357,0.335 0.593,0.449 0.236,0.114 0.491,0.172 0.766,0.172 0.38,0 0.677,-0.116 0.891,-0.348 0.214,-0.231 0.321,-0.535 0.321,-0.911"
               inkscape:connector-curvature="0" />
          </g>
          <g
             transform="matrix(1.5767572,0,0,-1.5767572,694.33021,231.18187)"
             id="g3770"
             style="fill:#2d70b8;fill-opacity:1">
            <path
               id="path3772"
               style="fill:#2d70b8;fill-opacity:1;fill-rule:nonzero;stroke:none"
               d="m 0,0 c 0,0.071 -0.007,0.138 -0.022,0.202 -0.015,0.065 -0.046,0.124 -0.093,0.18 -0.043,0.053 -0.101,0.096 -0.176,0.128 -0.075,0.032 -0.168,0.048 -0.282,0.048 -0.156,0 -0.307,-0.052 -0.454,-0.154 -0.147,-0.102 -0.28,-0.24 -0.397,-0.413 -0.111,-0.163 -0.201,-0.359 -0.272,-0.59 -0.07,-0.23 -0.105,-0.463 -0.105,-0.701 0,-0.13 0.007,-0.245 0.022,-0.346 0.015,-0.1 0.044,-0.192 0.086,-0.275 0.041,-0.081 0.099,-0.143 0.176,-0.188 0.077,-0.045 0.173,-0.068 0.29,-0.068 0.12,0 0.245,0.033 0.375,0.101 0.131,0.067 0.278,0.185 0.442,0.353 L 0,0 z m -0.461,-2.022 -0.022,0 c -0.047,-0.04 -0.103,-0.088 -0.168,-0.147 -0.065,-0.059 -0.141,-0.114 -0.228,-0.168 -0.083,-0.053 -0.174,-0.1 -0.272,-0.139 -0.098,-0.04 -0.204,-0.059 -0.319,-0.059 -0.309,0 -0.551,0.111 -0.727,0.333 -0.176,0.222 -0.263,0.525 -0.263,0.909 0,0.265 0.049,0.522 0.147,0.772 0.098,0.25 0.233,0.473 0.406,0.671 0.164,0.191 0.359,0.344 0.585,0.46 0.225,0.117 0.458,0.175 0.697,0.175 0.15,0 0.295,-0.02 0.432,-0.061 0.138,-0.04 0.246,-0.086 0.325,-0.138 L 0.719,0.736 0.757,0.688 0.27,-1.377 C 0.253,-1.442 0.235,-1.523 0.217,-1.618 0.199,-1.713 0.19,-1.783 0.19,-1.828 c 0,-0.121 0.026,-0.204 0.077,-0.246 0.051,-0.043 0.138,-0.065 0.259,-0.065 0.041,0 0.099,0.007 0.173,0.02 0.075,0.013 0.133,0.026 0.174,0.041 L 0.824,-2.282 C 0.632,-2.359 0.489,-2.415 0.395,-2.449 0.301,-2.482 0.187,-2.5 0.052,-2.5 c -0.154,0 -0.276,0.045 -0.365,0.135 -0.09,0.09 -0.139,0.203 -0.148,0.343"
               inkscape:connector-curvature="0" />
          </g>
          <g
             transform="matrix(1.5767572,0,0,-1.5767572,698.25743,235.17925)"
             id="g3774"
             style="fill:#2d70b8;fill-opacity:1">
            <path
               id="path3776"
               style="fill:#2d70b8;fill-opacity:1;fill-rule:nonzero;stroke:none"
               d="m 0,0 c -0.373,0 -0.668,0.109 -0.884,0.326 -0.217,0.218 -0.325,0.528 -0.325,0.929 0,0.266 0.041,0.522 0.123,0.766 0.082,0.245 0.197,0.462 0.344,0.652 0.147,0.19 0.333,0.346 0.558,0.466 C 0.041,3.26 0.291,3.32 0.566,3.32 0.871,3.32 1.103,3.255 1.262,3.126 1.42,2.997 1.5,2.835 1.5,2.639 1.5,2.491 1.465,2.362 1.396,2.252 1.327,2.141 1.223,2.085 1.084,2.085 0.969,2.085 0.883,2.114 0.825,2.171 0.768,2.229 0.739,2.293 0.739,2.362 c 0,0.069 0.023,0.161 0.069,0.28 C 0.854,2.76 0.891,2.854 0.918,2.927 0.894,2.984 0.842,3.026 0.761,3.053 0.68,3.079 0.596,3.093 0.508,3.093 c -0.29,0 -0.54,-0.169 -0.75,-0.507 -0.21,-0.338 -0.315,-0.752 -0.315,-1.242 0,-0.304 0.068,-0.544 0.204,-0.722 0.135,-0.178 0.318,-0.267 0.549,-0.267 0.207,0 0.391,0.055 0.553,0.166 0.161,0.111 0.315,0.268 0.463,0.47 L 1.395,0.857 C 1.247,0.625 1.047,0.424 0.794,0.254 0.542,0.085 0.277,0 0,0"
               inkscape:connector-curvature="0" />
          </g>
          <g
             transform="matrix(1.5767572,0,0,-1.5767572,706.20981,234.45237)"
             id="g3778"
             style="fill:#2d70b8;fill-opacity:1">
            <path
               id="path3780"
               style="fill:#2d70b8;fill-opacity:1;fill-rule:nonzero;stroke:none"
               d="M 0,0 -0.048,-0.205 C -0.24,-0.282 -0.39,-0.338 -0.496,-0.373 -0.603,-0.408 -0.71,-0.426 -0.819,-0.426 c -0.171,0 -0.299,0.044 -0.385,0.133 -0.085,0.089 -0.128,0.198 -0.128,0.328 0,0.047 0.004,0.099 0.013,0.155 0.008,0.057 0.023,0.123 0.042,0.201 l 0.313,1.194 c 0.023,0.092 0.042,0.175 0.056,0.25 0.013,0.074 0.021,0.134 0.021,0.179 0,0.143 -0.034,0.257 -0.102,0.34 -0.068,0.083 -0.168,0.125 -0.302,0.125 -0.135,0 -0.282,-0.044 -0.439,-0.132 C -1.888,2.26 -2.037,2.137 -2.179,1.979 l -0.543,-2.35 -0.598,0 0.952,4.119 c 0.011,0.049 0.02,0.09 0.028,0.124 0.007,0.034 0.011,0.07 0.011,0.109 0,0.077 -0.013,0.136 -0.039,0.178 -0.026,0.041 -0.062,0.072 -0.109,0.094 -0.041,0.019 -0.096,0.032 -0.167,0.039 -0.07,0.006 -0.141,0.014 -0.212,0.022 l 0.045,0.195 1.19,0.07 0.032,-0.048 -0.511,-2.21 0.013,0 c 0.218,0.177 0.414,0.311 0.586,0.402 0.172,0.09 0.367,0.136 0.586,0.136 0.204,0 0.363,-0.059 0.478,-0.177 0.114,-0.119 0.172,-0.275 0.172,-0.466 0,-0.039 -0.006,-0.108 -0.018,-0.205 C -0.295,1.912 -0.313,1.815 -0.339,1.719 L -0.608,0.691 C -0.625,0.623 -0.643,0.545 -0.663,0.456 -0.682,0.367 -0.691,0.299 -0.691,0.249 c 0,-0.121 0.026,-0.204 0.08,-0.248 0.053,-0.043 0.141,-0.065 0.262,-0.065 0.041,0 0.099,0.006 0.175,0.02 C -0.099,-0.029 -0.041,-0.016 0,0"
               inkscape:connector-curvature="0" />
          </g>
        </g>
        <g
           transform="matrix(1.5975763,0,0,1.5975763,-527.61701,-115.86787)"
           id="g4219">
          <g
             transform="matrix(1.5767572,0,0,-1.5767572,710.52744,235.14378)"
             id="g3782"
             style="fill:#2d70b8;fill-opacity:1">
            <path
               id="path3784"
               style="fill:#2d70b8;fill-opacity:1;fill-rule:nonzero;stroke:none"
               d="m 0,0 c -0.203,0 -0.351,0.041 -0.445,0.123 -0.094,0.082 -0.14,0.2 -0.14,0.354 0,0.048 0.003,0.095 0.009,0.138 0.007,0.044 0.015,0.094 0.026,0.15 l 0.498,2.135 -0.572,0 0.067,0.291 0.584,0 0.223,0.938 0.576,0 L 0.609,3.191 1.5,3.191 1.433,2.9 0.55,2.9 0.137,1.139 C 0.118,1.058 0.102,0.979 0.089,0.903 0.076,0.828 0.07,0.764 0.07,0.71 0.07,0.593 0.099,0.507 0.158,0.452 0.217,0.398 0.323,0.371 0.476,0.371 c 0.056,0 0.133,0.007 0.234,0.021 0.1,0.013 0.178,0.031 0.233,0.052 L 0.889,0.211 C 0.74,0.153 0.599,0.104 0.467,0.062 0.334,0.021 0.179,0 0,0"
               inkscape:connector-curvature="0" />
          </g>
          <g
             transform="matrix(1.5767572,0,0,-1.5767572,716.76509,231.73626)"
             id="g3786"
             style="fill:#2d70b8;fill-opacity:1">
            <path
               id="path3788"
               style="fill:#2d70b8;fill-opacity:1;fill-rule:nonzero;stroke:none"
               d="m 0,0 c 0,0.303 -0.054,0.53 -0.162,0.682 -0.107,0.151 -0.262,0.227 -0.465,0.227 -0.177,0 -0.344,-0.055 -0.5,-0.163 C -1.284,0.637 -1.419,0.46 -1.532,0.215 -1.62,0.028 -1.684,-0.178 -1.724,-0.405 c -0.041,-0.228 -0.061,-0.437 -0.061,-0.629 0,-0.306 0.053,-0.536 0.159,-0.694 0.105,-0.157 0.265,-0.235 0.478,-0.235 0.19,0 0.358,0.06 0.505,0.18 0.147,0.119 0.267,0.27 0.358,0.454 0.092,0.18 0.162,0.385 0.211,0.616 C -0.024,-0.481 0,-0.243 0,0 M 0.652,-0.122 C 0.652,-0.374 0.61,-0.626 0.524,-0.877 0.439,-1.129 0.315,-1.351 0.153,-1.54 -0.011,-1.736 -0.208,-1.894 -0.44,-2.013 c -0.231,-0.118 -0.499,-0.176 -0.804,-0.176 -0.354,0 -0.641,0.113 -0.862,0.341 -0.221,0.229 -0.331,0.536 -0.331,0.922 0,0.284 0.047,0.549 0.141,0.794 0.093,0.246 0.219,0.461 0.377,0.648 0.16,0.185 0.357,0.335 0.593,0.449 0.236,0.114 0.491,0.172 0.766,0.172 0.38,0 0.677,-0.116 0.891,-0.348 0.214,-0.231 0.321,-0.535 0.321,-0.911"
               inkscape:connector-curvature="0" />
          </g>
          <g
             transform="matrix(1.5767572,0,0,-1.5767572,723.80516,235.21001)"
             id="g3790"
             style="fill:#2d70b8;fill-opacity:1">
            <path
               id="path3792"
               style="fill:#2d70b8;fill-opacity:1;fill-rule:nonzero;stroke:none"
               d="m 0,0 c -0.232,0 -0.452,0.041 -0.659,0.122 -0.207,0.081 -0.387,0.199 -0.54,0.356 -0.156,0.158 -0.278,0.348 -0.366,0.573 -0.089,0.224 -0.133,0.477 -0.133,0.759 0,0.403 0.068,0.78 0.204,1.13 0.137,0.35 0.325,0.664 0.563,0.939 0.231,0.265 0.507,0.476 0.83,0.637 0.323,0.16 0.661,0.24 1.013,0.24 0.266,0 0.5,-0.031 0.702,-0.094 C 1.815,4.6 1.981,4.522 2.111,4.43 l 0.179,0.217 0.256,0 -0.346,-1.618 -0.262,0 0,0.128 C 1.938,3.333 1.924,3.5 1.896,3.659 1.869,3.818 1.815,3.962 1.737,4.09 1.66,4.214 1.555,4.312 1.422,4.387 1.289,4.46 1.118,4.497 0.912,4.497 0.649,4.497 0.406,4.427 0.181,4.287 -0.044,4.147 -0.239,3.961 -0.403,3.729 -0.565,3.502 -0.695,3.224 -0.793,2.893 -0.891,2.562 -0.94,2.224 -0.94,1.88 c 0,-0.455 0.111,-0.823 0.334,-1.107 0.223,-0.283 0.522,-0.424 0.897,-0.424 0.313,0 0.602,0.092 0.865,0.278 0.263,0.185 0.478,0.435 0.645,0.745 L 2.031,1.251 C 1.762,0.792 1.463,0.47 1.132,0.282 0.802,0.095 0.424,0 0,0"
               inkscape:connector-curvature="0" />
          </g>
          <g
             transform="matrix(1.5767572,0,0,-1.5767572,732.06531,230.76606)"
             id="g3794"
             style="fill:#2d70b8;fill-opacity:1">
            <path
               id="path3796"
               style="fill:#2d70b8;fill-opacity:1;fill-rule:nonzero;stroke:none"
               d="m 0,0 c 0,-0.06 -0.009,-0.126 -0.026,-0.197 -0.017,-0.072 -0.041,-0.131 -0.073,-0.177 -0.039,-0.058 -0.081,-0.103 -0.127,-0.133 -0.045,-0.031 -0.111,-0.047 -0.196,-0.047 -0.116,0 -0.202,0.03 -0.259,0.087 -0.058,0.057 -0.087,0.121 -0.087,0.192 0,0.066 0.016,0.14 0.048,0.222 0.032,0.082 0.065,0.163 0.099,0.244 -0.025,0 -0.067,-0.006 -0.126,-0.02 C -0.805,0.157 -0.876,0.13 -0.959,0.089 -1.042,0.049 -1.136,-0.013 -1.241,-0.094 -1.347,-0.175 -1.459,-0.282 -1.578,-0.417 l -0.515,-2.292 -0.597,0 0.467,2.074 c 0.01,0.052 0.026,0.129 0.046,0.231 0.02,0.102 0.031,0.178 0.031,0.227 0,0.12 -0.021,0.2 -0.062,0.24 -0.04,0.041 -0.121,0.061 -0.242,0.061 -0.047,0 -0.107,-0.008 -0.179,-0.023 -0.073,-0.017 -0.129,-0.03 -0.17,-0.04 l 0.049,0.205 c 0.166,0.074 0.312,0.13 0.44,0.166 0.128,0.036 0.238,0.053 0.33,0.053 0.17,0 0.292,-0.046 0.365,-0.138 0.072,-0.093 0.108,-0.233 0.108,-0.418 l 0.02,0 c 0.253,0.219 0.445,0.373 0.577,0.461 0.131,0.088 0.268,0.131 0.411,0.131 0.068,0 0.134,-0.008 0.198,-0.026 C -0.237,0.479 -0.183,0.449 -0.138,0.409 -0.091,0.364 -0.056,0.312 -0.034,0.254 -0.011,0.195 0,0.11 0,0"
               inkscape:connector-curvature="0" />
          </g>
          <g
             transform="matrix(1.5767572,0,0,-1.5767572,735.15655,228.03907)"
             id="g3798"
             style="fill:#2d70b8;fill-opacity:1">
            <path
               id="path3800"
               style="fill:#2d70b8;fill-opacity:1;fill-rule:nonzero;stroke:none"
               d="m 0,0 c 0,-0.121 -0.04,-0.228 -0.118,-0.317 -0.079,-0.091 -0.177,-0.137 -0.295,-0.137 -0.108,0 -0.202,0.044 -0.281,0.13 -0.079,0.086 -0.118,0.184 -0.118,0.296 0,0.117 0.039,0.219 0.118,0.306 0.079,0.088 0.173,0.132 0.281,0.132 0.122,0 0.221,-0.041 0.298,-0.123 C -0.038,0.204 0,0.109 0,0 m -0.227,-4.09 -0.048,-0.205 c -0.196,-0.079 -0.353,-0.134 -0.47,-0.165 -0.117,-0.03 -0.217,-0.046 -0.301,-0.046 -0.17,0 -0.298,0.044 -0.384,0.133 -0.085,0.089 -0.128,0.198 -0.128,0.328 0,0.049 0.005,0.101 0.013,0.153 0.009,0.054 0.023,0.121 0.042,0.203 l 0.338,1.36 c 0.017,0.075 0.033,0.155 0.049,0.24 0.016,0.086 0.024,0.158 0.024,0.218 0,0.12 -0.019,0.199 -0.059,0.238 -0.039,0.04 -0.12,0.06 -0.241,0.06 -0.046,0 -0.109,-0.008 -0.187,-0.023 -0.077,-0.014 -0.136,-0.027 -0.177,-0.038 l 0.048,0.205 c 0.166,0.075 0.315,0.13 0.448,0.166 0.132,0.036 0.236,0.055 0.313,0.055 0.175,0 0.301,-0.042 0.381,-0.125 0.078,-0.084 0.118,-0.195 0.118,-0.337 0,-0.038 -0.005,-0.091 -0.013,-0.156 C -0.47,-1.893 -0.482,-1.959 -0.5,-2.025 l -0.339,-1.361 c -0.021,-0.083 -0.04,-0.165 -0.056,-0.245 -0.016,-0.08 -0.023,-0.145 -0.023,-0.196 0,-0.122 0.026,-0.205 0.081,-0.25 0.054,-0.045 0.141,-0.068 0.263,-0.068 0.04,0 0.098,0.005 0.173,0.016 0.076,0.011 0.133,0.024 0.174,0.039"
               inkscape:connector-curvature="0" />
          </g>
          <g
             transform="matrix(1.5767572,0,0,-1.5767572,743.8757,234.46782)"
             id="g3802"
             style="fill:#2d70b8;fill-opacity:1">
            <path
               id="path3804"
               style="fill:#2d70b8;fill-opacity:1;fill-rule:nonzero;stroke:none"
               d="M 0,0 -0.048,-0.205 C -0.245,-0.284 -0.402,-0.339 -0.52,-0.369 -0.638,-0.4 -0.738,-0.416 -0.822,-0.416 c -0.171,0 -0.299,0.044 -0.385,0.133 -0.085,0.089 -0.128,0.198 -0.128,0.328 0,0.047 0.004,0.099 0.013,0.155 0.008,0.057 0.022,0.123 0.042,0.2 l 0.316,1.195 c 0.023,0.092 0.042,0.175 0.056,0.25 0.013,0.074 0.021,0.134 0.021,0.178 0,0.144 -0.031,0.257 -0.093,0.34 -0.062,0.083 -0.159,0.125 -0.292,0.125 -0.143,0 -0.282,-0.034 -0.418,-0.101 C -1.828,2.32 -1.982,2.194 -2.153,2.011 l -0.562,-2.372 -0.594,0 0.504,2.138 c 0.011,0.047 0.021,0.097 0.031,0.149 0.009,0.053 0.014,0.092 0.014,0.117 0,0.139 -0.034,0.248 -0.103,0.326 -0.069,0.079 -0.17,0.119 -0.304,0.119 -0.121,0 -0.254,-0.03 -0.4,-0.092 C -3.713,2.336 -3.883,2.2 -4.076,1.988 l -0.546,-2.349 -0.598,0 0.48,2.074 c 0.017,0.075 0.034,0.155 0.05,0.24 0.016,0.086 0.023,0.158 0.023,0.218 0,0.124 -0.02,0.206 -0.06,0.245 -0.041,0.039 -0.12,0.06 -0.238,0.06 -0.047,0 -0.108,-0.009 -0.181,-0.028 C -5.221,2.431 -5.278,2.416 -5.319,2.405 l 0.048,0.206 c 0.168,0.076 0.315,0.131 0.444,0.167 0.129,0.037 0.239,0.055 0.331,0.055 0.172,0 0.293,-0.046 0.365,-0.139 0.072,-0.092 0.11,-0.219 0.114,-0.38 l 0.02,0 c 0.251,0.2 0.457,0.341 0.619,0.426 0.162,0.086 0.355,0.129 0.579,0.129 0.189,0 0.343,-0.056 0.461,-0.165 0.118,-0.11 0.185,-0.248 0.2,-0.415 l 0.013,0 c 0.227,0.19 0.429,0.334 0.606,0.433 0.178,0.097 0.384,0.147 0.62,0.147 0.204,0 0.36,-0.059 0.469,-0.178 0.11,-0.119 0.164,-0.274 0.164,-0.465 0,-0.039 -0.005,-0.108 -0.017,-0.205 C -0.295,1.922 -0.313,1.825 -0.339,1.729 L -0.608,0.701 C -0.627,0.633 -0.646,0.555 -0.663,0.466 -0.68,0.377 -0.688,0.309 -0.688,0.259 c 0,-0.121 0.025,-0.204 0.076,-0.248 0.051,-0.043 0.138,-0.066 0.26,-0.066 0.04,0 0.099,0.006 0.176,0.017 C -0.099,-0.028 -0.041,-0.015 0,0"
               inkscape:connector-curvature="0" />
          </g>
          <g
             transform="matrix(1.5767572,0,0,-1.5767572,747.3102,228.03907)"
             id="g3806"
             style="fill:#2d70b8;fill-opacity:1">
            <path
               id="path3808"
               style="fill:#2d70b8;fill-opacity:1;fill-rule:nonzero;stroke:none"
               d="m 0,0 c 0,-0.121 -0.04,-0.228 -0.118,-0.317 -0.079,-0.091 -0.177,-0.137 -0.295,-0.137 -0.108,0 -0.202,0.044 -0.281,0.13 -0.079,0.086 -0.118,0.184 -0.118,0.296 0,0.117 0.039,0.219 0.118,0.306 0.079,0.088 0.173,0.132 0.281,0.132 0.122,0 0.221,-0.041 0.298,-0.123 C -0.038,0.204 0,0.109 0,0 m -0.227,-4.09 -0.048,-0.205 c -0.196,-0.079 -0.353,-0.134 -0.47,-0.165 -0.117,-0.03 -0.217,-0.046 -0.301,-0.046 -0.17,0 -0.298,0.044 -0.384,0.133 -0.085,0.089 -0.128,0.198 -0.128,0.328 0,0.049 0.005,0.101 0.013,0.153 0.009,0.054 0.023,0.121 0.042,0.203 l 0.338,1.36 c 0.017,0.075 0.033,0.155 0.049,0.24 0.016,0.086 0.024,0.158 0.024,0.218 0,0.12 -0.019,0.199 -0.059,0.238 -0.039,0.04 -0.12,0.06 -0.241,0.06 -0.046,0 -0.109,-0.008 -0.187,-0.023 -0.077,-0.014 -0.136,-0.027 -0.177,-0.038 l 0.048,0.205 c 0.166,0.075 0.315,0.13 0.448,0.166 0.132,0.036 0.236,0.055 0.313,0.055 0.175,0 0.301,-0.042 0.381,-0.125 0.078,-0.084 0.118,-0.195 0.118,-0.337 0,-0.038 -0.005,-0.091 -0.013,-0.156 C -0.47,-1.893 -0.482,-1.959 -0.5,-2.025 l -0.339,-1.361 c -0.021,-0.083 -0.04,-0.165 -0.056,-0.245 -0.016,-0.08 -0.023,-0.145 -0.023,-0.196 0,-0.122 0.026,-0.205 0.081,-0.25 0.054,-0.045 0.141,-0.068 0.263,-0.068 0.04,0 0.098,0.005 0.173,0.016 0.076,0.011 0.133,0.024 0.174,0.039"
               inkscape:connector-curvature="0" />
          </g>
          <g
             transform="matrix(1.5767572,0,0,-1.5767572,753.03902,234.45237)"
             id="g3810"
             style="fill:#2d70b8;fill-opacity:1">
            <path
               id="path3812"
               style="fill:#2d70b8;fill-opacity:1;fill-rule:nonzero;stroke:none"
               d="m 0,0 -0.048,-0.205 c -0.193,-0.077 -0.343,-0.133 -0.45,-0.168 -0.106,-0.035 -0.214,-0.053 -0.324,-0.053 -0.171,0 -0.299,0.044 -0.385,0.133 -0.085,0.089 -0.128,0.198 -0.128,0.328 0,0.047 0.004,0.099 0.013,0.155 0.008,0.057 0.022,0.123 0.041,0.201 l 0.317,1.194 c 0.023,0.092 0.042,0.175 0.056,0.25 0.013,0.074 0.02,0.134 0.02,0.179 0,0.143 -0.033,0.257 -0.101,0.34 -0.068,0.083 -0.169,0.125 -0.302,0.125 -0.129,0 -0.274,-0.043 -0.435,-0.128 -0.16,-0.086 -0.312,-0.21 -0.453,-0.372 l -0.547,-2.35 -0.597,0 0.48,2.074 c 0.01,0.052 0.026,0.126 0.046,0.223 0.02,0.097 0.03,0.176 0.03,0.235 0,0.12 -0.02,0.2 -0.061,0.24 -0.04,0.041 -0.122,0.061 -0.244,0.061 -0.047,0 -0.107,-0.008 -0.18,-0.024 -0.073,-0.016 -0.129,-0.029 -0.17,-0.04 l 0.048,0.206 c 0.167,0.074 0.315,0.129 0.444,0.166 0.128,0.036 0.239,0.053 0.331,0.053 0.169,0 0.29,-0.046 0.363,-0.137 0.073,-0.091 0.111,-0.218 0.116,-0.381 l 0.019,0 c 0.234,0.188 0.435,0.327 0.605,0.418 0.17,0.09 0.364,0.136 0.58,0.136 0.205,0 0.364,-0.059 0.479,-0.177 0.114,-0.119 0.171,-0.275 0.171,-0.466 0,-0.039 -0.005,-0.108 -0.017,-0.205 C -0.295,1.912 -0.313,1.815 -0.339,1.719 L -0.608,0.691 C -0.627,0.623 -0.646,0.545 -0.664,0.456 -0.682,0.367 -0.691,0.299 -0.691,0.249 c 0,-0.121 0.026,-0.204 0.08,-0.248 0.053,-0.043 0.14,-0.065 0.262,-0.065 0.04,0 0.099,0.006 0.175,0.02 C -0.099,-0.029 -0.041,-0.016 0,0"
               inkscape:connector-curvature="0" />
          </g>
          <g
             transform="matrix(1.5767572,0,0,-1.5767572,757.56843,231.18187)"
             id="g3814"
             style="fill:#2d70b8;fill-opacity:1">
            <path
               id="path3816"
               style="fill:#2d70b8;fill-opacity:1;fill-rule:nonzero;stroke:none"
               d="m 0,0 c 0,0.071 -0.007,0.138 -0.022,0.202 -0.015,0.065 -0.046,0.124 -0.093,0.18 -0.043,0.053 -0.101,0.096 -0.176,0.128 -0.075,0.032 -0.168,0.048 -0.282,0.048 -0.156,0 -0.307,-0.052 -0.454,-0.154 -0.147,-0.102 -0.28,-0.24 -0.397,-0.413 -0.111,-0.163 -0.201,-0.359 -0.272,-0.59 -0.07,-0.23 -0.105,-0.463 -0.105,-0.701 0,-0.13 0.007,-0.245 0.022,-0.346 0.015,-0.1 0.044,-0.192 0.086,-0.275 0.041,-0.081 0.099,-0.143 0.176,-0.188 0.077,-0.045 0.173,-0.068 0.29,-0.068 0.12,0 0.245,0.033 0.375,0.101 0.131,0.067 0.278,0.185 0.442,0.353 L 0,0 z m -0.461,-2.022 -0.022,0 c -0.047,-0.04 -0.103,-0.088 -0.168,-0.147 -0.065,-0.059 -0.141,-0.114 -0.228,-0.168 -0.083,-0.053 -0.174,-0.1 -0.272,-0.139 -0.098,-0.04 -0.204,-0.059 -0.319,-0.059 -0.309,0 -0.551,0.111 -0.727,0.333 -0.176,0.222 -0.263,0.525 -0.263,0.909 0,0.265 0.049,0.522 0.147,0.772 0.098,0.25 0.233,0.473 0.406,0.671 0.164,0.191 0.359,0.344 0.585,0.46 0.225,0.117 0.458,0.175 0.697,0.175 0.15,0 0.295,-0.02 0.432,-0.061 0.138,-0.04 0.246,-0.086 0.325,-0.138 L 0.719,0.736 0.757,0.688 0.27,-1.377 C 0.253,-1.442 0.235,-1.523 0.217,-1.618 0.199,-1.713 0.19,-1.783 0.19,-1.828 c 0,-0.121 0.026,-0.204 0.077,-0.246 0.051,-0.043 0.138,-0.065 0.259,-0.065 0.041,0 0.099,0.007 0.173,0.02 0.075,0.013 0.133,0.026 0.174,0.041 L 0.824,-2.282 C 0.632,-2.359 0.489,-2.415 0.395,-2.449 0.301,-2.482 0.187,-2.5 0.052,-2.5 c -0.154,0 -0.276,0.045 -0.365,0.135 -0.09,0.09 -0.139,0.203 -0.148,0.343"
               inkscape:connector-curvature="0" />
          </g>
          <g
             transform="matrix(1.5767572,0,0,-1.5767572,762.28245,227.30777)"
             id="g3818"
             style="fill:#2d70b8;fill-opacity:1">
            <path
               id="path3820"
               style="fill:#2d70b8;fill-opacity:1;fill-rule:nonzero;stroke:none"
               d="m 0,0 -0.895,-3.851 c -0.019,-0.081 -0.037,-0.162 -0.054,-0.243 -0.017,-0.081 -0.026,-0.146 -0.026,-0.198 0,-0.121 0.028,-0.204 0.082,-0.249 0.054,-0.045 0.142,-0.067 0.264,-0.067 0.042,0 0.105,0.004 0.19,0.015 0.084,0.011 0.147,0.024 0.189,0.039 l -0.048,-0.205 c -0.192,-0.076 -0.339,-0.131 -0.443,-0.163 -0.103,-0.032 -0.22,-0.048 -0.35,-0.048 -0.17,0 -0.3,0.044 -0.388,0.133 -0.089,0.089 -0.133,0.198 -0.133,0.328 0,0.049 0.005,0.101 0.014,0.154 0.01,0.053 0.023,0.121 0.04,0.202 l 0.78,3.37 c 0.015,0.065 0.025,0.111 0.03,0.137 0.005,0.026 0.008,0.057 0.008,0.096 0,0.076 -0.013,0.136 -0.038,0.178 -0.026,0.041 -0.062,0.072 -0.11,0.094 -0.045,0.019 -0.101,0.032 -0.17,0.039 -0.068,0.006 -0.138,0.013 -0.209,0.022 l 0.045,0.195 1.19,0.07 L 0,0 z"
               inkscape:connector-curvature="0" />
          </g>
          <g
             transform="matrix(1.5767572,0,0,-1.5767572,770.78448,227.88202)"
             id="g3822"
             style="fill:#2d70b8;fill-opacity:1">
            <path
               id="path3824"
               style="fill:#2d70b8;fill-opacity:1;fill-rule:nonzero;stroke:none"
               d="M 0,0 -0.048,-0.211 C -0.11,-0.213 -0.187,-0.222 -0.278,-0.235 -0.37,-0.249 -0.449,-0.267 -0.515,-0.288 -0.598,-0.315 -0.657,-0.357 -0.692,-0.412 -0.728,-0.468 -0.755,-0.534 -0.774,-0.611 l -0.609,-2.705 c -0.032,-0.144 -0.092,-0.294 -0.18,-0.454 -0.089,-0.158 -0.203,-0.3 -0.341,-0.426 -0.147,-0.134 -0.312,-0.243 -0.495,-0.326 -0.184,-0.083 -0.398,-0.125 -0.643,-0.125 -0.298,0 -0.537,0.075 -0.716,0.224 -0.179,0.149 -0.269,0.356 -0.269,0.62 0,0.211 0.053,0.396 0.159,0.554 0.105,0.157 0.243,0.236 0.414,0.236 0.128,0 0.218,-0.031 0.272,-0.092 0.053,-0.062 0.079,-0.135 0.079,-0.218 0,-0.074 -0.018,-0.152 -0.054,-0.231 -0.036,-0.078 -0.083,-0.155 -0.14,-0.229 -0.052,-0.067 -0.108,-0.135 -0.17,-0.207 -0.062,-0.072 -0.11,-0.131 -0.144,-0.181 0.032,-0.063 0.091,-0.121 0.179,-0.172 0.087,-0.052 0.217,-0.077 0.39,-0.077 0.155,0 0.29,0.035 0.404,0.108 0.114,0.071 0.208,0.166 0.283,0.286 0.074,0.119 0.138,0.259 0.193,0.422 0.054,0.162 0.103,0.343 0.148,0.543 l 0.544,2.418 c 0.003,0.011 0.005,0.027 0.009,0.048 0.003,0.022 0.004,0.04 0.004,0.058 0,0.045 -0.009,0.085 -0.028,0.121 -0.02,0.036 -0.053,0.067 -0.099,0.093 -0.056,0.034 -0.137,0.06 -0.244,0.078 -0.107,0.018 -0.185,0.029 -0.236,0.034 L -2.017,0 0,0 z"
               inkscape:connector-curvature="0" />
          </g>
          <g
             transform="matrix(1.5767572,0,0,-1.5767572,773.5993,234.33223)"
             id="g3826"
             style="fill:#2d70b8;fill-opacity:1">
            <path
               id="path3828"
               style="fill:#2d70b8;fill-opacity:1;fill-rule:nonzero;stroke:none"
               d="m 0,0 -0.02,0 c -0.098,-0.079 -0.191,-0.151 -0.281,-0.217 -0.09,-0.066 -0.178,-0.122 -0.265,-0.167 -0.103,-0.051 -0.196,-0.088 -0.279,-0.11 -0.083,-0.023 -0.192,-0.033 -0.326,-0.033 -0.205,0 -0.364,0.058 -0.476,0.177 -0.114,0.119 -0.17,0.274 -0.17,0.465 0,0.052 0.004,0.113 0.013,0.183 0.008,0.07 0.028,0.175 0.06,0.313 l 0.248,1.014 c 0.022,0.094 0.039,0.177 0.053,0.249 0.014,0.073 0.021,0.143 0.021,0.208 0,0.12 -0.02,0.199 -0.059,0.238 -0.04,0.04 -0.12,0.06 -0.241,0.06 -0.047,0 -0.107,-0.009 -0.179,-0.027 C -1.973,2.335 -2.029,2.32 -2.07,2.31 l 0.048,0.206 c 0.167,0.075 0.313,0.131 0.44,0.171 0.127,0.038 0.228,0.057 0.305,0.057 0.171,0 0.296,-0.04 0.376,-0.12 0.08,-0.079 0.12,-0.193 0.12,-0.34 0,-0.039 -0.004,-0.091 -0.013,-0.157 C -0.802,2.061 -0.815,1.995 -0.832,1.929 L -1.114,0.745 C -1.136,0.656 -1.153,0.572 -1.167,0.494 -1.181,0.417 -1.187,0.357 -1.187,0.316 c 0,-0.142 0.03,-0.255 0.092,-0.338 0.062,-0.083 0.16,-0.124 0.294,-0.124 0.136,0 0.276,0.035 0.42,0.106 0.144,0.071 0.288,0.18 0.433,0.325 L 0.609,2.693 1.167,2.731 1.205,2.684 0.729,0.624 C 0.708,0.536 0.689,0.448 0.672,0.36 0.655,0.271 0.647,0.209 0.647,0.173 c 0,-0.121 0.026,-0.204 0.078,-0.248 0.052,-0.043 0.139,-0.066 0.26,-0.066 0.04,0 0.098,0.007 0.173,0.02 0.074,0.013 0.132,0.026 0.172,0.041 L 1.282,-0.284 C 1.105,-0.356 0.958,-0.411 0.839,-0.447 0.721,-0.483 0.611,-0.502 0.511,-0.502 c -0.172,0 -0.301,0.05 -0.385,0.15 C 0.042,-0.251 0,-0.134 0,0"
               inkscape:connector-curvature="0" />
          </g>
          <g
             transform="matrix(1.5767572,0,0,-1.5767572,777.799,235.1884)"
             id="g3830"
             style="fill:#2d70b8;fill-opacity:1">
            <path
               id="path3832"
               style="fill:#2d70b8;fill-opacity:1;fill-rule:nonzero;stroke:none"
               d="m 0,0 c -0.315,0 -0.578,0.056 -0.788,0.167 -0.211,0.112 -0.316,0.259 -0.316,0.44 0,0.085 0.032,0.165 0.093,0.24 0.062,0.075 0.138,0.112 0.227,0.112 0.086,0 0.155,-0.02 0.207,-0.06 0.052,-0.039 0.093,-0.086 0.123,-0.138 0.032,-0.056 0.06,-0.121 0.085,-0.199 0.024,-0.077 0.045,-0.139 0.062,-0.188 0.032,-0.036 0.076,-0.07 0.133,-0.101 0.056,-0.031 0.138,-0.046 0.244,-0.046 0.231,0 0.405,0.057 0.523,0.172 0.118,0.117 0.178,0.272 0.178,0.469 0,0.145 -0.056,0.261 -0.167,0.348 C 0.494,1.302 0.328,1.382 0.109,1.454 0.03,1.479 -0.063,1.519 -0.169,1.571 -0.276,1.624 -0.361,1.68 -0.425,1.739 c -0.077,0.069 -0.139,0.15 -0.186,0.244 -0.047,0.094 -0.07,0.205 -0.07,0.333 0,0.274 0.122,0.51 0.366,0.71 0.244,0.2 0.544,0.3 0.9,0.3 0.083,0 0.173,-0.005 0.269,-0.013 C 0.95,3.305 1.056,3.281 1.17,3.242 1.271,3.208 1.356,3.158 1.426,3.091 1.497,3.023 1.532,2.937 1.532,2.83 1.532,2.742 1.502,2.663 1.444,2.592 1.385,2.521 1.308,2.484 1.212,2.484 1.133,2.484 1.068,2.502 1.017,2.536 0.966,2.569 0.923,2.615 0.889,2.673 0.855,2.73 0.827,2.793 0.806,2.858 0.785,2.925 0.761,2.99 0.736,3.054 0.695,3.071 0.659,3.083 0.627,3.089 0.595,3.096 0.552,3.099 0.499,3.099 0.29,3.099 0.132,3.043 0.024,2.931 -0.083,2.818 -0.138,2.685 -0.138,2.531 -0.138,2.382 -0.089,2.269 0.008,2.193 0.105,2.117 0.266,2.038 0.489,1.957 0.779,1.853 0.99,1.733 1.121,1.599 1.252,1.464 1.318,1.297 1.318,1.099 1.318,0.773 1.193,0.51 0.943,0.306 0.694,0.102 0.379,0 0,0"
               inkscape:connector-curvature="0" />
          </g>
          <g
             transform="matrix(1.5767572,0,0,-1.5767572,781.95502,235.14378)"
             id="g3834"
             style="fill:#2d70b8;fill-opacity:1">
            <path
               id="path3836"
               style="fill:#2d70b8;fill-opacity:1;fill-rule:nonzero;stroke:none"
               d="m 0,0 c -0.203,0 -0.351,0.041 -0.445,0.123 -0.094,0.082 -0.14,0.2 -0.14,0.354 0,0.048 0.003,0.095 0.009,0.138 0.007,0.044 0.015,0.094 0.026,0.15 l 0.498,2.135 -0.572,0 0.067,0.291 0.584,0 0.223,0.938 0.576,0 L 0.609,3.191 1.5,3.191 1.433,2.9 0.55,2.9 0.137,1.139 C 0.118,1.058 0.102,0.979 0.089,0.903 0.076,0.828 0.07,0.764 0.07,0.71 0.07,0.593 0.099,0.507 0.158,0.452 0.217,0.398 0.323,0.371 0.476,0.371 c 0.056,0 0.133,0.007 0.234,0.021 0.1,0.013 0.178,0.031 0.233,0.052 L 0.889,0.211 C 0.74,0.153 0.599,0.104 0.467,0.062 0.334,0.021 0.179,0 0,0"
               inkscape:connector-curvature="0" />
          </g>
          <g
             transform="matrix(1.5767572,0,0,-1.5767572,787.1487,228.03907)"
             id="g3838"
             style="fill:#2d70b8;fill-opacity:1">
            <path
               id="path3840"
               style="fill:#2d70b8;fill-opacity:1;fill-rule:nonzero;stroke:none"
               d="m 0,0 c 0,-0.121 -0.04,-0.228 -0.118,-0.317 -0.079,-0.091 -0.177,-0.137 -0.295,-0.137 -0.108,0 -0.202,0.044 -0.281,0.13 -0.079,0.086 -0.118,0.184 -0.118,0.296 0,0.117 0.039,0.219 0.118,0.306 0.079,0.088 0.173,0.132 0.281,0.132 0.122,0 0.221,-0.041 0.298,-0.123 C -0.038,0.204 0,0.109 0,0 m -0.227,-4.09 -0.048,-0.205 c -0.196,-0.079 -0.353,-0.134 -0.47,-0.165 -0.117,-0.03 -0.217,-0.046 -0.301,-0.046 -0.17,0 -0.298,0.044 -0.384,0.133 -0.085,0.089 -0.128,0.198 -0.128,0.328 0,0.049 0.005,0.101 0.013,0.153 0.009,0.054 0.023,0.121 0.042,0.203 l 0.338,1.36 c 0.017,0.075 0.033,0.155 0.049,0.24 0.016,0.086 0.024,0.158 0.024,0.218 0,0.12 -0.019,0.199 -0.059,0.238 -0.039,0.04 -0.12,0.06 -0.241,0.06 -0.046,0 -0.109,-0.008 -0.187,-0.023 -0.077,-0.014 -0.136,-0.027 -0.177,-0.038 l 0.048,0.205 c 0.166,0.075 0.315,0.13 0.448,0.166 0.132,0.036 0.236,0.055 0.313,0.055 0.175,0 0.301,-0.042 0.381,-0.125 0.078,-0.084 0.118,-0.195 0.118,-0.337 0,-0.038 -0.005,-0.091 -0.013,-0.156 C -0.47,-1.893 -0.482,-1.959 -0.5,-2.025 l -0.339,-1.361 c -0.021,-0.083 -0.04,-0.165 -0.056,-0.245 -0.016,-0.08 -0.023,-0.145 -0.023,-0.196 0,-0.122 0.026,-0.205 0.081,-0.25 0.054,-0.045 0.141,-0.068 0.263,-0.068 0.04,0 0.098,0.005 0.173,0.016 0.076,0.011 0.133,0.024 0.174,0.039"
               inkscape:connector-curvature="0" />
          </g>
          <g
             transform="matrix(1.5767572,0,0,-1.5767572,789.32762,235.17925)"
             id="g3842"
             style="fill:#2d70b8;fill-opacity:1">
            <path
               id="path3844"
               style="fill:#2d70b8;fill-opacity:1;fill-rule:nonzero;stroke:none"
               d="m 0,0 c -0.373,0 -0.668,0.109 -0.884,0.326 -0.217,0.218 -0.325,0.528 -0.325,0.929 0,0.266 0.041,0.522 0.123,0.766 0.082,0.245 0.197,0.462 0.344,0.652 0.147,0.19 0.333,0.346 0.558,0.466 C 0.041,3.26 0.291,3.32 0.566,3.32 0.871,3.32 1.103,3.255 1.262,3.126 1.42,2.997 1.5,2.835 1.5,2.639 1.5,2.491 1.465,2.362 1.396,2.252 1.327,2.141 1.223,2.085 1.084,2.085 0.969,2.085 0.883,2.114 0.825,2.171 0.768,2.229 0.739,2.293 0.739,2.362 c 0,0.069 0.023,0.161 0.069,0.28 C 0.854,2.76 0.891,2.854 0.918,2.927 0.894,2.984 0.842,3.026 0.761,3.053 0.68,3.079 0.596,3.093 0.508,3.093 c -0.29,0 -0.54,-0.169 -0.75,-0.507 -0.21,-0.338 -0.315,-0.752 -0.315,-1.242 0,-0.304 0.068,-0.544 0.204,-0.722 0.135,-0.178 0.318,-0.267 0.549,-0.267 0.207,0 0.391,0.055 0.553,0.166 0.161,0.111 0.315,0.268 0.463,0.47 L 1.395,0.857 C 1.247,0.625 1.047,0.424 0.794,0.254 0.542,0.085 0.277,0 0,0"
               inkscape:connector-curvature="0" />
          </g>
          <g
             transform="matrix(1.5767572,0,0,-1.5767572,795.50992,230.87076)"
             id="g3846"
             style="fill:#2d70b8;fill-opacity:1">
            <path
               id="path3848"
               style="fill:#2d70b8;fill-opacity:1;fill-rule:nonzero;stroke:none"
               d="m 0,0 c 0,0.083 -0.012,0.148 -0.035,0.196 -0.024,0.048 -0.053,0.083 -0.09,0.107 -0.038,0.025 -0.079,0.042 -0.121,0.048 -0.043,0.006 -0.087,0.009 -0.131,0.009 -0.256,0 -0.492,-0.14 -0.709,-0.421 -0.216,-0.281 -0.353,-0.63 -0.411,-1.05 0.149,0.021 0.318,0.051 0.506,0.091 0.187,0.04 0.343,0.091 0.467,0.155 0.176,0.092 0.308,0.209 0.395,0.352 C -0.043,-0.369 0,-0.198 0,0 m 0.588,-0.079 c 0,-0.227 -0.07,-0.421 -0.212,-0.583 -0.142,-0.162 -0.348,-0.291 -0.619,-0.388 -0.198,-0.072 -0.399,-0.131 -0.601,-0.176 -0.203,-0.045 -0.427,-0.082 -0.672,-0.112 0,-0.337 0.062,-0.595 0.187,-0.772 0.125,-0.178 0.308,-0.267 0.549,-0.267 0.213,0 0.401,0.053 0.564,0.159 0.163,0.107 0.324,0.266 0.482,0.477 l 0.182,-0.134 c -0.171,-0.261 -0.384,-0.469 -0.64,-0.624 -0.256,-0.155 -0.521,-0.233 -0.796,-0.233 -0.378,0 -0.666,0.105 -0.866,0.317 -0.199,0.211 -0.298,0.511 -0.298,0.899 0,0.269 0.042,0.526 0.126,0.77 0.084,0.244 0.207,0.468 0.369,0.671 0.158,0.198 0.352,0.358 0.581,0.48 0.229,0.121 0.482,0.183 0.76,0.183 0.306,0 0.534,-0.063 0.682,-0.188 0.149,-0.125 0.222,-0.285 0.222,-0.479"
               inkscape:connector-curvature="0" />
          </g>
        </g>
      </g>
    </g>
  </g>
</svg>
