<?xml version="1.0" encoding="utf-8"?>
<!-- Generator: Adobe Illustrator 17.1.0, SVG Export Plug-In . SVG Version: 6.00 Build 0)  -->
<!DOCTYPE svg PUBLIC "-//W3C//DTD SVG 1.1//EN" "http://www.w3.org/Graphics/SVG/1.1/DTD/svg11.dtd">
<svg version="1.1" id="Layer_1" xmlns="http://www.w3.org/2000/svg" xmlns:xlink="http://www.w3.org/1999/xlink" x="0px" y="0px"
	 viewBox="0 0 588 80" enable-background="new 0 0 588 80" xml:space="preserve">
<g>
	<g>
		<path d="M13.527,62.536c0,4.478-2.207,6.716-6.62,6.716s-6.619-2.238-6.619-6.716V54.43h4.893v8.538c0,1.12,0.511,1.68,1.535,1.68
			c1.022,0,1.534-0.56,1.534-1.68V35.195h5.277V62.536z"/>
		<path d="M27.677,62.968c0,4.19-2.015,6.284-6.044,6.284s-6.044-2.094-6.044-6.284V48.626c0-4.189,2.015-6.284,6.044-6.284
			s6.044,2.095,6.044,6.284V62.968z M23.072,47.955c0-1.087-0.479-1.631-1.439-1.631c-0.959,0-1.438,0.544-1.438,1.631V63.64
			c0,1.088,0.479,1.631,1.438,1.631c0.96,0,1.439-0.543,1.439-1.631V47.955z"/>
		<path d="M41.923,68.772h-4.604V47.955c0-1.087-0.448-1.631-1.344-1.631c-0.448,0-0.815,0.16-1.104,0.479
			c-0.287,0.32-0.432,0.736-0.432,1.247v20.722h-4.604V35.195h4.604V44.5c0.735-1.439,1.902-2.158,3.502-2.158
			c2.654,0,3.981,1.743,3.981,5.229V68.772z"/>
		<path d="M48.829,68.772h-4.604V42.822h4.27v2.542c0.255-0.895,0.719-1.623,1.391-2.183c0.672-0.559,1.487-0.839,2.446-0.839
			c2.654,0,3.981,1.743,3.981,5.229v21.202h-4.604V47.955c0-1.087-0.448-1.631-1.344-1.631c-0.448,0-0.815,0.16-1.104,0.479
			c-0.287,0.32-0.432,0.736-0.432,1.247V68.772z"/>
		<path d="M65.425,39.8v-4.605h11.704v3.358l-6.14,25.614h6.14v4.605H65.232v-3.31L71.373,39.8H65.425z"/>
		<path d="M83.508,40.423h-4.604v-4.509h4.604V40.423z M83.508,68.772h-4.604V42.822h4.604V68.772z"/>
		<path d="M90.511,68.772h-4.604V42.822h4.27v2.542c0.223-0.895,0.671-1.623,1.343-2.183c0.672-0.559,1.487-0.839,2.446-0.839
			c1.854,0,3.054,0.911,3.598,2.734c0.672-1.823,1.935-2.734,3.789-2.734c2.622,0,3.934,1.743,3.934,5.229v21.202h-4.604V47.955
			c0-1.087-0.432-1.631-1.296-1.631c-0.448,0-0.808,0.16-1.079,0.479c-0.271,0.32-0.407,0.736-0.407,1.247v20.722h-4.605V47.955
			c0-1.087-0.432-1.631-1.295-1.631c-0.448,0-0.808,0.16-1.079,0.479c-0.272,0.32-0.408,0.736-0.408,1.247V68.772z"/>
		<path d="M112.192,68.772h-4.604V42.822h4.27v2.542c0.223-0.895,0.671-1.623,1.343-2.183c0.672-0.559,1.487-0.839,2.446-0.839
			c1.854,0,3.054,0.911,3.598,2.734c0.672-1.823,1.935-2.734,3.789-2.734c2.622,0,3.934,1.743,3.934,5.229v21.202h-4.604V47.955
			c0-1.087-0.432-1.631-1.296-1.631c-0.448,0-0.808,0.16-1.079,0.479c-0.271,0.32-0.407,0.736-0.407,1.247v20.722h-4.605V47.955
			c0-1.087-0.432-1.631-1.295-1.631c-0.448,0-0.808,0.16-1.079,0.479c-0.272,0.32-0.408,0.736-0.408,1.247V68.772z"/>
		<path d="M140.782,57.068h-7.147v6.571c0,1.088,0.479,1.631,1.438,1.631c0.96,0,1.439-0.543,1.439-1.631v-4.797h4.27v4.125
			c0,4.19-1.951,6.284-5.853,6.284c-3.934,0-5.9-2.094-5.9-6.284V48.626c0-4.189,1.967-6.284,5.9-6.284
			c3.901,0,5.853,2.095,5.853,6.284V57.068z M133.635,47.955v5.276h2.878v-5.276c0-1.087-0.479-1.631-1.439-1.631
			C134.114,46.324,133.635,46.868,133.635,47.955z"/>
		<path d="M147.497,68.772h-4.604V42.822h4.27v2.542c0.255-0.895,0.711-1.623,1.366-2.183c0.655-0.559,1.479-0.839,2.471-0.839
			c1.215,0,2.118,0.392,2.71,1.175c0.592,0.784,0.888,2.103,0.888,3.957v9.497h-4.27v-9.017c0-1.087-0.432-1.631-1.295-1.631
			c-0.479,0-0.855,0.16-1.127,0.479c-0.272,0.32-0.408,0.736-0.408,1.247V68.772z"/>
		<path d="M160.976,68.772h-4.604V42.822h4.27v2.542c0.223-0.895,0.671-1.623,1.343-2.183c0.672-0.559,1.487-0.839,2.446-0.839
			c1.854,0,3.054,0.911,3.598,2.734c0.672-1.823,1.935-2.734,3.789-2.734c2.622,0,3.934,1.743,3.934,5.229v21.202h-4.604V47.955
			c0-1.087-0.432-1.631-1.296-1.631c-0.448,0-0.808,0.16-1.079,0.479c-0.271,0.32-0.407,0.736-0.407,1.247v20.722h-4.605V47.955
			c0-1.087-0.432-1.631-1.295-1.631c-0.448,0-0.808,0.16-1.079,0.479c-0.272,0.32-0.408,0.736-0.408,1.247V68.772z"/>
		<path d="M185.728,68.772c-0.191-0.415-0.353-1.135-0.479-2.159c-0.672,1.76-1.903,2.639-3.693,2.639
			c-2.655,0-3.981-1.662-3.981-4.988v-3.263c0-1.47,0.255-2.71,0.768-3.717c0.511-1.008,1.135-1.751,1.87-2.23
			c0.735-0.48,1.471-0.903,2.207-1.271c0.735-0.368,1.358-0.799,1.87-1.295c0.512-0.495,0.768-1.095,0.768-1.799v-2.734
			c0-1.087-0.448-1.631-1.343-1.631c-0.928,0-1.391,0.544-1.391,1.631v4.509h-4.317v-3.837c0-4.189,1.95-6.284,5.852-6.284
			c3.869,0,5.805,2.095,5.805,6.284v14.246c0,2.463,0.144,4.43,0.432,5.9H185.728z M185.056,63.544v-7.147
			c-0.671,0.416-1.15,0.728-1.438,0.936s-0.6,0.6-0.936,1.175c-0.336,0.576-0.504,1.247-0.504,2.015v3.262
			c0,1.024,0.432,1.535,1.295,1.535c0.48,0,0.864-0.168,1.151-0.504C184.912,64.479,185.056,64.056,185.056,63.544z"/>
		<path d="M196.567,68.772h-4.604V42.822h4.27v2.542c0.255-0.895,0.719-1.623,1.391-2.183c0.672-0.559,1.487-0.839,2.446-0.839
			c2.654,0,3.981,1.743,3.981,5.229v21.202h-4.604V47.955c0-1.087-0.448-1.631-1.344-1.631c-0.448,0-0.815,0.16-1.104,0.479
			c-0.287,0.32-0.432,0.736-0.432,1.247V68.772z"/>
	</g>
	<g>
		<g>
			<path fill="#333333" d="M423.622,55.979v7.935c0,3.547-1.603,5.32-4.808,5.32c-3.236,0-4.854-1.773-4.854-5.32v-22.87
				c0-3.484,1.384-5.228,4.154-5.228c1.742,0,2.971,0.747,3.687,2.241V36.19h1.82v11.995h-1.96v-7.094
				c0-1.058-0.289-1.898-0.863-2.521c-0.576-0.622-1.284-0.934-2.124-0.934c-0.965,0-1.642,0.273-2.03,0.817
				c-0.39,0.545-0.584,1.377-0.584,2.497v23.149c0,2.21,0.934,3.313,2.801,3.313s2.801-1.104,2.801-3.313v-8.121H423.622z"/>
			<path fill="#333333" d="M435.243,64.381c0,3.236-1.493,4.854-4.48,4.854c-2.956,0-4.435-1.617-4.435-4.854V48.092
				c0-3.235,1.479-4.854,4.435-4.854c2.987,0,4.48,1.618,4.48,4.854V64.381z M433.33,47.905c0-2.022-0.857-3.034-2.567-3.034
				c-1.712,0-2.567,1.012-2.567,3.034v16.662c0,2.022,0.855,3.034,2.567,3.034c1.71,0,2.567-1.012,2.567-3.034V47.905z"/>
			<path fill="#333333" d="M437.016,45.198v-1.587h3.174v20.956c0,1.151,0.188,1.944,0.561,2.38
				c0.373,0.437,0.949,0.654,1.727,0.654s1.447-0.334,2.008-1.004c0.56-0.668,0.84-1.454,0.84-2.357V45.198h-1.961v-1.587h3.874
				v23.057c0,0.592,0.233,0.887,0.7,0.887c0.311,0,0.654-0.094,1.027-0.28v1.587c-0.561,0.248-1.09,0.373-1.588,0.373
				c-1.307,0-1.96-0.73-1.96-2.193v-0.279c-0.28,0.715-0.739,1.307-1.377,1.773s-1.361,0.699-2.17,0.699
				c-2.396,0-3.594-1.523-3.594-4.574V45.198H437.016z"/>
			<path fill="#333333" d="M449.617,45.198v-1.587h3.08v2.287c0.279-0.777,0.738-1.416,1.377-1.914
				c0.637-0.498,1.377-0.747,2.217-0.747c2.363,0,3.547,1.525,3.547,4.574v19.462h1.307v1.587h-4.48v-1.587h1.307V47.905
				c0-1.151-0.18-1.944-0.537-2.38c-0.357-0.435-0.941-0.653-1.75-0.653s-1.492,0.335-2.053,1.003
				c-0.561,0.669-0.84,1.455-0.84,2.357v19.042h1.307v1.587h-4.48v-1.587h1.307V45.198H449.617z"/>
			<path fill="#333333" d="M467.959,43.611v1.587h-2.707v20.77c0,0.591,0.109,1.011,0.326,1.261
				c0.219,0.248,0.576,0.373,1.074,0.373c0.436,0,0.871-0.094,1.307-0.28v1.54c-0.373,0.248-0.918,0.373-1.633,0.373
				c-1.059,0-1.82-0.241-2.287-0.723c-0.467-0.482-0.701-1.299-0.701-2.451V45.198h-1.492v-1.587h1.492v-4.621h1.914v4.621H467.959z
				"/>
			<path fill="#333333" d="M473.232,45.198h-1.354l2.24,14.002c0.373,2.489,0.67,4.933,0.887,7.327
				c0.311-2.861,0.623-5.305,0.934-7.327l2.193-14.002h-1.354v-1.587h4.342v1.587h-1.262l-4.152,26.044
				c-0.188,1.088-0.514,1.89-0.98,2.403c-0.467,0.513-1.23,0.771-2.287,0.771c-0.467,0-0.965-0.078-1.494-0.234v-1.586
				c0.404,0.154,0.824,0.232,1.26,0.232c0.498,0,0.871-0.116,1.121-0.35c0.248-0.233,0.436-0.631,0.561-1.19
				c0.092-0.56,0.061-1.385-0.094-2.474l-3.828-23.616h-1.26v-1.587h4.527V45.198z"/>
			<path fill="#333333" d="M495.027,68.861v-1.82h1.682l-0.561-4.154h-5.32l-0.514,4.154h1.633v1.82h-4.9v-1.82h1.354l3.92-30.851
				h2.521l3.967,30.851h1.354v1.82H495.027z M492.414,50.379l-1.354,10.734h4.854l-1.354-10.734
				c-0.498-4.201-0.855-7.934-1.072-11.201C493.176,43.285,492.818,47.019,492.414,50.379z"/>
			<path fill="#333333" d="M506.648,43.611v1.587h-2.707v20.77c0,0.591,0.109,1.011,0.326,1.261
				c0.219,0.248,0.576,0.373,1.074,0.373c0.436,0,0.871-0.094,1.307-0.28v1.54c-0.373,0.248-0.918,0.373-1.633,0.373
				c-1.059,0-1.82-0.241-2.287-0.723c-0.467-0.482-0.701-1.299-0.701-2.451V45.198h-1.492v-1.587h1.492v-4.621h1.914v4.621H506.648z
				"/>
			<path fill="#333333" d="M513.742,43.611v1.587h-2.707v20.77c0,0.591,0.109,1.011,0.326,1.261
				c0.219,0.248,0.576,0.373,1.074,0.373c0.436,0,0.871-0.094,1.307-0.28v1.54c-0.373,0.248-0.918,0.373-1.633,0.373
				c-1.059,0-1.82-0.241-2.287-0.723c-0.467-0.482-0.701-1.299-0.701-2.451V45.198h-1.492v-1.587h1.492v-4.621h1.914v4.621H513.742z
				"/>
			<path fill="#333333" d="M524.709,64.381c0,3.236-1.492,4.854-4.48,4.854c-2.955,0-4.434-1.617-4.434-4.854V48.092
				c0-3.235,1.479-4.854,4.434-4.854c2.988,0,4.48,1.618,4.48,4.854V64.381z M522.797,47.905c0-2.022-0.857-3.034-2.568-3.034
				s-2.566,1.012-2.566,3.034v16.662c0,2.022,0.855,3.034,2.566,3.034s2.568-1.012,2.568-3.034V47.905z"/>
			<path fill="#333333" d="M526.67,45.198v-1.587h3.08v2.194c0.248-0.747,0.684-1.361,1.307-1.844
				c0.623-0.482,1.354-0.723,2.193-0.723c1.059,0,1.875,0.343,2.451,1.026c0.574,0.685,0.863,1.867,0.863,3.547v8.681h-1.773v-8.588
				c0-1.182-0.164-1.983-0.49-2.404c-0.326-0.42-0.879-0.63-1.656-0.63c-0.811,0-1.479,0.335-2.008,1.003
				c-0.529,0.669-0.793,1.455-0.793,2.357v19.042h1.307v1.587h-4.48v-1.587h1.307V45.198H526.67z"/>
			<path fill="#333333" d="M537.871,45.198v-1.587h3.08v2.287c0.279-0.777,0.738-1.416,1.377-1.914
				c0.637-0.498,1.377-0.747,2.217-0.747c2.363,0,3.547,1.525,3.547,4.574v19.462h1.307v1.587h-4.48v-1.587h1.307V47.905
				c0-1.151-0.18-1.944-0.537-2.38c-0.357-0.435-0.941-0.653-1.75-0.653s-1.492,0.335-2.053,1.003
				c-0.561,0.669-0.84,1.455-0.84,2.357v19.042h1.307v1.587h-4.48v-1.587h1.307V45.198H537.871z"/>
			<path fill="#333333" d="M559.947,56.446h-6.908v8.121c0,2.022,0.855,3.034,2.566,3.034s2.568-1.012,2.568-3.034v-5.04h1.773
				v4.854c0,3.236-1.463,4.854-4.387,4.854c-2.926,0-4.389-1.617-4.389-4.854V48.092c0-3.235,1.463-4.854,4.389-4.854
				c2.924,0,4.387,1.618,4.387,4.854V56.446z M553.039,54.813h5.135v-6.908c0-2.022-0.857-3.034-2.568-3.034
				s-2.566,1.012-2.566,3.034V54.813z"/>
			<path fill="#333333" d="M565.734,45.198h-1.354l2.24,14.002c0.373,2.489,0.668,4.933,0.887,7.327
				c0.311-2.861,0.621-5.305,0.934-7.327l2.193-14.002h-1.354v-1.587h4.34v1.587h-1.26l-4.154,26.044
				c-0.186,1.088-0.514,1.89-0.98,2.403c-0.467,0.513-1.229,0.771-2.287,0.771c-0.467,0-0.965-0.078-1.492-0.234v-1.586
				c0.404,0.154,0.824,0.232,1.26,0.232c0.498,0,0.871-0.116,1.119-0.35c0.25-0.233,0.436-0.631,0.561-1.19
				c0.094-0.56,0.062-1.385-0.094-2.474l-3.826-23.616h-1.26v-1.587h4.527V45.198z"/>
		</g>
		<g>
			<path fill="#333333" d="M394.72,45.018c0.128-0.461,0.097-0.807-0.096-1.038c-0.192-0.23-0.468-0.346-0.826-0.346
				c-0.667,0.026-1.358,0.442-2.076,1.249s-1.396,1.749-2.037,2.825s-1.198,2.152-1.672,3.229c-0.475,1.076-0.813,1.896-1.019,2.46
				h3.383c0.281,0,0.384,0.052,0.308,0.154c-0.077,0.103-0.308,0.192-0.692,0.269c-0.256,0.052-0.545,0.109-0.864,0.173
				c-0.321,0.064-0.635,0.115-0.942,0.154s-0.596,0.071-0.864,0.096c-0.27,0.026-0.468,0.039-0.596,0.039
				c-0.334,0.82-0.653,1.896-0.961,3.229c-0.308,1.333-0.564,2.742-0.769,4.229c-0.052,0.461-0.122,1.069-0.212,1.825
				s-0.147,1.538-0.173,2.345c-0.025,0.808,0.025,1.569,0.153,2.287c0.128,0.717,0.371,1.255,0.73,1.614
				c0.205,0.205,0.41,0.339,0.615,0.403c0.205,0.063,0.23,0.135,0.077,0.212c-0.206,0.076-0.462,0.089-0.769,0.038
				c-0.308-0.052-0.615-0.18-0.923-0.385s-0.583-0.474-0.826-0.807c-0.244-0.333-0.392-0.756-0.442-1.269
				c-0.103-0.922-0.077-2.031,0.077-3.324c0.153-1.295,0.365-2.601,0.634-3.921c0.27-1.319,0.558-2.556,0.865-3.709
				s0.563-2.024,0.769-2.614c-0.308,0.052-0.564,0.039-0.769-0.038c-0.206-0.077-0.353-0.173-0.442-0.289
				c-0.09-0.115-0.135-0.23-0.135-0.346s0.039-0.173,0.115-0.173c0.205-0.051,0.468-0.077,0.788-0.077s0.544-0.025,0.673-0.077
				c0.179-0.486,0.416-1.115,0.711-1.883c0.295-0.769,0.641-1.576,1.038-2.422c0.396-0.845,0.832-1.691,1.307-2.537
				c0.474-0.846,0.999-1.576,1.576-2.191c0.576-0.615,1.191-1.076,1.845-1.384c0.653-0.307,1.339-0.358,2.057-0.153
				c0.281,0.077,0.493,0.218,0.634,0.422c0.141,0.206,0.23,0.423,0.27,0.654c0.038,0.23,0.013,0.448-0.077,0.653
				S394.925,44.941,394.72,45.018z"/>
			<path fill="#333333" d="M399.562,55.28c0.102,0,0.128,0.058,0.077,0.173c-0.052,0.116-0.18,0.237-0.385,0.365
				c-0.513,0.257-1.09,0.398-1.729,0.423c-0.641,0.026-1.115-0.024-1.422-0.153c0.051,0.359-0.052,0.948-0.308,1.768
				c-0.257,0.82-0.615,1.628-1.076,2.422c-0.718,1.256-1.455,2.037-2.21,2.345c-0.757,0.308-1.41,0.281-1.961-0.077
				s-0.922-0.999-1.114-1.922c-0.192-0.922-0.084-1.985,0.326-3.19c0.128-0.409,0.301-0.87,0.52-1.383
				c0.217-0.513,0.474-0.993,0.769-1.442c0.294-0.448,0.628-0.833,0.999-1.153c0.371-0.32,0.775-0.493,1.211-0.519
				c0.179-0.205,0.429-0.294,0.75-0.27c0.319,0.026,0.64,0.142,0.96,0.346c0.32,0.206,0.608,0.468,0.865,0.788
				c0.256,0.32,0.397,0.66,0.423,1.019c0.23,0.257,0.48,0.423,0.75,0.5c0.269,0.076,0.544,0.115,0.826,0.115
				c0.281,0,0.569-0.025,0.864-0.077C398.992,55.307,399.28,55.28,399.562,55.28z M395.334,55.896
				c-0.41-0.077-0.729-0.205-0.961-0.384c-0.23-0.18-0.397-0.359-0.499-0.539c-0.103-0.231-0.167-0.474-0.192-0.73
				c-0.23,0.052-0.475,0.218-0.73,0.5c-0.256,0.282-0.5,0.629-0.73,1.038c-0.23,0.41-0.448,0.865-0.653,1.364
				c-0.205,0.5-0.371,1.006-0.499,1.519c-0.257,0.923-0.34,1.672-0.25,2.248c0.089,0.577,0.288,0.942,0.596,1.096
				c0.308,0.154,0.691,0.09,1.153-0.192c0.461-0.281,0.922-0.794,1.383-1.537c0.231-0.358,0.436-0.762,0.615-1.211
				c0.179-0.448,0.333-0.884,0.462-1.307c0.128-0.423,0.217-0.801,0.269-1.134C395.347,56.293,395.359,56.05,395.334,55.896z"/>
			<path fill="#333333" d="M405.289,55.012c-0.231-0.461-0.532-0.698-0.903-0.711c-0.372-0.013-0.775,0.128-1.211,0.423
				c-0.437,0.295-0.884,0.711-1.346,1.25c-0.461,0.538-0.897,1.128-1.307,1.768c-0.257,0.385-0.487,0.795-0.691,1.23
				c-0.206,0.436-0.392,0.858-0.558,1.269c-0.167,0.41-0.308,0.781-0.423,1.114s-0.199,0.603-0.25,0.808
				c-0.052,0.23-0.192,0.326-0.423,0.288c-0.23-0.039-0.32-0.16-0.269-0.365c0.076-0.358,0.173-0.929,0.288-1.711
				c0.115-0.781,0.224-1.595,0.326-2.44s0.192-1.634,0.27-2.363c0.077-0.731,0.115-1.224,0.115-1.48
				c0.025-0.256,0.153-0.467,0.385-0.634c0.23-0.167,0.48-0.282,0.749-0.346c0.27-0.064,0.5-0.058,0.691,0.019
				c0.192,0.077,0.25,0.244,0.174,0.5c-0.052,0.154-0.129,0.436-0.231,0.846c-0.103,0.41-0.218,0.846-0.346,1.307
				s-0.25,0.897-0.365,1.307c-0.115,0.41-0.211,0.692-0.288,0.846c0.282-0.512,0.628-1.038,1.038-1.576
				c0.409-0.538,0.832-1.037,1.269-1.499c0.436-0.461,0.857-0.839,1.268-1.134c0.41-0.294,0.743-0.442,1-0.442
				c0.409,0,0.724,0.148,0.941,0.442c0.218,0.295,0.358,0.583,0.423,0.865c0.063,0.282,0.063,0.5,0,0.654
				C405.551,55.396,405.442,55.319,405.289,55.012z"/>
		</g>
	</g>
</g>
</svg>
