<?xml version="1.0" encoding="utf-8"?>
<!-- Generator: Adobe Illustrator 17.1.0, SVG Export Plug-In . SVG Version: 6.00 Build 0)  -->
<!DOCTYPE svg PUBLIC "-//W3C//DTD SVG 1.1//EN" "http://www.w3.org/Graphics/SVG/1.1/DTD/svg11.dtd">
<svg version="1.1" id="Layer_1" xmlns="http://www.w3.org/2000/svg" xmlns:xlink="http://www.w3.org/1999/xlink" x="0px" y="0px"
	 viewBox="0 0 28 28" enable-background="new 0 0 28 28" xml:space="preserve">
<g id="g2901_1_">
	<g>
		<path fill="#0171D0" d="M28,27.155C28,27.62,27.62,28,27.155,28H0.845C0.38,28,0,27.62,0,27.155V0.845C0,0.38,0.38,0,0.845,0
			h26.311C27.62,0,28,0.38,28,0.845V27.155z"/>
	</g>
	<g id="g3088-2_1_" transform="matrix(0.8763772,0,0,0.8763772,2209.9696,1216.7708)">
		<path id="path3003-8-4_1_" fill="#FFFFFF" d="M-2516.564-1380.43c7.262,0,14.524,0,21.786,0c-0.814,0.793-1.609,1.604-2.426,2.394
			c-0.996,0.965-1.967,1.953-2.962,2.918c-0.566,0.562-1.149,1.109-1.701,1.684c-0.989,0.972-1.986,1.938-2.968,2.916
			c-0.499,0.431-1.358,0.415-1.809-0.077C-2509.955-1373.869-2513.253-1377.155-2516.564-1380.43z"/>
		<path id="path3007-8-5_1_" fill="#FFFFFF" d="M-2516.811-1365.196c0.002-4.756,0.002-9.513,0-14.269
			c2.391,2.355,4.466,4.536,6.849,6.898C-2512.268-1370.07-2514.541-1367.65-2516.811-1365.196z"/>
		<path id="path3007-8-2-5_1_" fill="#FFFFFF" d="M-2494.661-1365.14c-0.002-4.756-0.002-9.513,0-14.269
			c-2.391,2.355-4.466,4.536-6.849,6.898C-2499.204-1370.014-2496.931-1367.594-2494.661-1365.14z"/>
		<path id="path3015-4-4_1_" fill="#FFFFFF" d="M-2516.479-1364.441l7.098-7.563c0.508,0.485,1.495,1.375,2.01,1.853
			c1.208,1.076,2.371,1.06,3.548-0.052c0.469-0.46,1.315-1.295,1.785-1.754l6.9,7.516
			C-2502.352-1364.44-2509.266-1364.441-2516.479-1364.441z"/>
	</g>
</g>
</svg>
