<?xml version="1.0" encoding="utf-8"?>
<!-- Generator: Adobe Illustrator 17.1.0, SVG Export Plug-In . SVG Version: 6.00 Build 0)  -->
<!DOCTYPE svg PUBLIC "-//W3C//DTD SVG 1.1//EN" "http://www.w3.org/Graphics/SVG/1.1/DTD/svg11.dtd">
<svg version="1.1" id="Layer_1" xmlns="http://www.w3.org/2000/svg" xmlns:xlink="http://www.w3.org/1999/xlink" x="0px" y="0px"
	 viewBox="0 0 188 28" enable-background="new 0 0 188 28" xml:space="preserve">
<g>
	<g>
		<path fill="#FFFFFF" d="M10.685,14.725v4.947H9.921V7.523h1.493c1.319,0,1.979,0.648,1.979,1.944v3.298
			c0,1.308-0.659,1.961-1.979,1.961H10.685z M11.345,8.2h-0.66v5.85h0.66c0.462,0,0.792-0.096,0.989-0.287s0.295-0.512,0.295-0.963
			V9.45c0-0.452-0.098-0.772-0.295-0.963S11.807,8.2,11.345,8.2z"/>
		<path fill="#FFFFFF" d="M16.743,19.673l-0.243-1.84h-2.066l-0.226,1.84h-0.694l1.528-12.15h0.955l1.527,12.15H16.743z
			 M15.077,12.868l-0.556,4.305h1.892l-0.538-4.305c-0.197-1.608-0.33-2.991-0.399-4.148C15.372,10.143,15.238,11.527,15.077,12.868
			z"/>
		<path fill="#FFFFFF" d="M18.426,19.673V7.523h0.764v12.15H18.426z"/>
		<path fill="#FFFFFF" d="M20.63,19.673V7.523h1.545c1.307,0,1.961,0.648,1.961,1.944v8.262c0,1.297-0.654,1.944-1.961,1.944H20.63z
			 M22.088,8.2h-0.694v10.796h0.694c0.474,0,0.807-0.093,0.998-0.278c0.191-0.185,0.286-0.509,0.286-0.972V9.45
			c0-0.463-0.095-0.787-0.286-0.972S22.562,8.2,22.088,8.2z"/>
		<path fill="#FFFFFF" d="M28.528,13.858v5.814h-0.764V7.523h2.794V8.2h-2.031v4.999h1.84v0.66H28.528z"/>
		<path fill="#FFFFFF" d="M31.236,17.833v-8.47c0-1.319,0.602-1.979,1.805-1.979c1.215,0,1.822,0.66,1.822,1.979v8.47
			c0,1.319-0.607,1.979-1.822,1.979C31.837,19.811,31.236,19.152,31.236,17.833z M31.999,17.902c0,0.822,0.347,1.232,1.042,1.232
			s1.042-0.41,1.042-1.232V9.293c0-0.822-0.347-1.232-1.042-1.232s-1.042,0.411-1.042,1.232V17.902z"/>
		<path fill="#FFFFFF" d="M37.414,13.962h-0.538v5.71h-0.764V7.523h1.614c0.59,0,1.059,0.133,1.406,0.399
			c0.347,0.267,0.521,0.764,0.521,1.493v2.569c0,0.88-0.324,1.43-0.972,1.649c0.648,0.22,0.972,0.77,0.972,1.649v2.014
			c0,1.146,0.086,1.938,0.26,2.378h-0.851c-0.127-0.509-0.191-1.1-0.191-1.771v-2.465c0-0.566-0.102-0.955-0.304-1.163
			C38.366,14.066,37.981,13.962,37.414,13.962z M36.876,13.285h0.747c0.474,0,0.801-0.084,0.98-0.252
			c0.179-0.167,0.269-0.483,0.269-0.946V9.414c0-0.462-0.09-0.781-0.269-0.955c-0.18-0.173-0.506-0.26-0.98-0.26h-0.747V13.285z"/>
		<path fill="#FFFFFF" d="M43.194,7.523h1.614c0.579,0,1.039,0.133,1.38,0.399c0.341,0.267,0.512,0.764,0.512,1.493v2.309
			c0,0.88-0.312,1.423-0.938,1.632c0.648,0.22,0.972,0.758,0.972,1.614v2.812c0,0.729-0.174,1.227-0.521,1.492
			c-0.347,0.267-0.815,0.399-1.406,0.399h-1.614V7.523z M43.958,13.008h0.747c0.462,0,0.787-0.087,0.972-0.26
			c0.185-0.174,0.278-0.486,0.278-0.938V9.414c0-0.462-0.09-0.781-0.269-0.955c-0.18-0.173-0.506-0.26-0.98-0.26h-0.747V13.008z
			 M44.705,13.667h-0.747v5.329h0.747c0.474,0,0.801-0.087,0.98-0.261c0.179-0.174,0.269-0.491,0.269-0.954v-2.916
			c0-0.451-0.09-0.764-0.269-0.938C45.505,13.754,45.179,13.667,44.705,13.667z"/>
		<path fill="#FFFFFF" d="M49.894,11.706l0.833-4.183h0.694L49.79,15.42v4.253h-0.781V15.49L47.36,7.523h0.781l0.833,4.183
			c0.22,1.18,0.376,2.124,0.469,2.829C49.512,13.841,49.663,12.898,49.894,11.706z"/>
		<path fill="#FFFFFF" d="M54.181,8.2V7.523h3.176v0.521l-2.413,10.953h2.413v0.677h-3.229v-0.521L56.524,8.2H54.181z"/>
		<path fill="#FFFFFF" d="M58.347,19.673V7.523h0.764v12.15H58.347z"/>
		<path fill="#FFFFFF" d="M63.154,18.11c0.058-0.774,0.208-1.949,0.451-3.522l1.111-7.065h1.094v12.15h-0.747v-7.637
			c0-0.949,0.023-2.106,0.07-3.471c-0.116,0.949-0.267,2.094-0.452,3.437l-1.215,7.672h-0.694l-1.215-7.672
			c-0.186-1.203-0.336-2.349-0.451-3.437c0.046,1.365,0.069,2.522,0.069,3.471v7.637h-0.643V7.523h1.076l1.111,7.065
			C62.94,16.011,63.085,17.185,63.154,18.11z"/>
		<path fill="#FFFFFF" d="M69.872,18.11c0.058-0.774,0.208-1.949,0.451-3.522l1.111-7.065h1.094v12.15h-0.747v-7.637
			c0-0.949,0.023-2.106,0.07-3.471c-0.116,0.949-0.267,2.094-0.452,3.437l-1.215,7.672H69.49l-1.215-7.672
			c-0.186-1.203-0.336-2.349-0.451-3.437c0.046,1.365,0.069,2.522,0.069,3.471v7.637H67.25V7.523h1.076l1.111,7.065
			C69.657,16.011,69.802,17.185,69.872,18.11z"/>
		<path fill="#FFFFFF" d="M74.748,13.684v5.312h2.152v0.677h-2.916V7.523h2.864V8.2h-2.1v4.808h1.892v0.677H74.748z"/>
		<path fill="#FFFFFF" d="M79.279,13.962h-0.538v5.71h-0.764V7.523h1.614c0.59,0,1.059,0.133,1.406,0.399
			c0.347,0.267,0.521,0.764,0.521,1.493v2.569c0,0.88-0.324,1.43-0.972,1.649c0.648,0.22,0.972,0.77,0.972,1.649v2.014
			c0,1.146,0.086,1.938,0.26,2.378h-0.851c-0.127-0.509-0.191-1.1-0.191-1.771v-2.465c0-0.566-0.102-0.955-0.304-1.163
			C80.23,14.066,79.846,13.962,79.279,13.962z M78.741,13.285h0.747c0.474,0,0.801-0.084,0.98-0.252
			c0.179-0.167,0.269-0.483,0.269-0.946V9.414c0-0.462-0.09-0.781-0.269-0.955c-0.18-0.173-0.506-0.26-0.98-0.26h-0.747V13.285z"/>
		<path fill="#FFFFFF" d="M85.423,18.11c0.058-0.774,0.208-1.949,0.451-3.522l1.111-7.065h1.094v12.15h-0.747v-7.637
			c0-0.949,0.023-2.106,0.07-3.471c-0.116,0.949-0.267,2.094-0.452,3.437l-1.215,7.672h-0.694l-1.215-7.672
			c-0.186-1.203-0.336-2.349-0.451-3.437c0.046,1.365,0.069,2.522,0.069,3.471v7.637h-0.643V7.523h1.076l1.111,7.065
			C85.209,16.011,85.354,17.185,85.423,18.11z"/>
		<path fill="#FFFFFF" d="M92.209,19.673l-0.243-1.84h-2.066l-0.226,1.84h-0.694l1.528-12.15h0.955l1.527,12.15H92.209z
			 M90.543,12.868l-0.556,4.305h1.892l-0.538-4.305c-0.197-1.608-0.33-2.991-0.399-4.148C90.838,10.143,90.705,11.527,90.543,12.868
			z"/>
		<path fill="#FFFFFF" d="M96.896,7.523h0.66v12.15h-0.764l-1.806-8.297c-0.058-0.266-0.147-0.734-0.269-1.406
			c-0.122-0.671-0.206-1.122-0.251-1.354c0.058,0.984,0.086,1.921,0.086,2.812v8.245h-0.66V7.523h1.024l1.545,7.082
			c0.058,0.255,0.147,0.729,0.269,1.424c0.122,0.693,0.206,1.162,0.252,1.405c-0.058-1.446-0.087-2.4-0.087-2.863V7.523z"/>
		<path fill="#FFFFFF" d="M101.999,13.858v5.814h-0.765V7.523h2.795V8.2h-2.03v4.999h1.84v0.66H101.999z"/>
		<path fill="#FFFFFF" d="M104.706,17.833v-8.47c0-1.319,0.602-1.979,1.805-1.979c1.216,0,1.823,0.66,1.823,1.979v8.47
			c0,1.319-0.607,1.979-1.823,1.979C105.308,19.811,104.706,19.152,104.706,17.833z M105.47,17.902c0,0.822,0.348,1.232,1.041,1.232
			c0.694,0,1.042-0.41,1.042-1.232V9.293c0-0.822-0.348-1.232-1.042-1.232c-0.693,0-1.041,0.411-1.041,1.232V17.902z"/>
		<path fill="#FFFFFF" d="M110.886,13.962h-0.538v5.71h-0.765V7.523h1.614c0.591,0,1.06,0.133,1.406,0.399
			c0.348,0.267,0.521,0.764,0.521,1.493v2.569c0,0.88-0.324,1.43-0.972,1.649c0.647,0.22,0.972,0.77,0.972,1.649v2.014
			c0,1.146,0.087,1.938,0.261,2.378h-0.851c-0.127-0.509-0.19-1.1-0.19-1.771v-2.465c0-0.566-0.102-0.955-0.305-1.163
			C111.837,14.066,111.453,13.962,110.886,13.962z M110.348,13.285h0.746c0.475,0,0.801-0.084,0.98-0.252
			c0.18-0.167,0.27-0.483,0.27-0.946V9.414c0-0.462-0.09-0.781-0.27-0.955c-0.18-0.173-0.506-0.26-0.98-0.26h-0.746V13.285z"/>
		<path fill="#FFFFFF" d="M117.238,17.902c0,0.822,0.348,1.232,1.041,1.232c0.694,0,1.042-0.41,1.042-1.232v-3.021h0.729v2.951
			c0,1.319-0.596,1.979-1.787,1.979c-1.192,0-1.788-0.659-1.788-1.979v-8.47c0-1.319,0.596-1.979,1.788-1.979
			c1.191,0,1.787,0.66,1.787,1.979v2.621h-0.729v-2.69c0-0.822-0.348-1.232-1.042-1.232c-0.693,0-1.041,0.411-1.041,1.232V17.902z"
			/>
		<path fill="#FFFFFF" d="M121.091,17.833v-8.47c0-1.319,0.602-1.979,1.805-1.979c1.216,0,1.823,0.66,1.823,1.979v8.47
			c0,1.319-0.607,1.979-1.823,1.979C121.693,19.811,121.091,19.152,121.091,17.833z M121.855,17.902
			c0,0.822,0.348,1.232,1.041,1.232c0.694,0,1.042-0.41,1.042-1.232V9.293c0-0.822-0.348-1.232-1.042-1.232
			c-0.693,0-1.041,0.411-1.041,1.232V17.902z"/>
		<path fill="#FFFFFF" d="M126.646,17.972c0,0.775,0.347,1.163,1.041,1.163c0.694,0,1.042-0.388,1.042-1.163V7.523h0.729V17.92
			c0,1.262-0.596,1.892-1.788,1.892c-1.191,0-1.787-0.63-1.787-1.892V7.523h0.764V17.972z"/>
		<path fill="#FFFFFF" d="M133.796,7.523h0.659v12.15h-0.764l-1.806-8.297c-0.058-0.266-0.147-0.734-0.269-1.406
			c-0.121-0.671-0.206-1.122-0.252-1.354c0.058,0.984,0.087,1.921,0.087,2.812v8.245h-0.659V7.523h1.023l1.545,7.082
			c0.058,0.255,0.147,0.729,0.27,1.424c0.121,0.693,0.205,1.162,0.251,1.405c-0.058-1.446-0.086-2.4-0.086-2.863V7.523z"/>
		<path fill="#FFFFFF" d="M138.691,7.523V8.2h-1.371v11.473h-0.781V8.2h-1.354V7.523H138.691z"/>
		<path fill="#FFFFFF" d="M141.415,11.706l0.834-4.183h0.694l-1.632,7.897v4.253h-0.781V15.49l-1.648-7.967h0.78l0.833,4.183
			c0.22,1.18,0.376,2.124,0.469,2.829C141.034,13.841,141.184,12.898,141.415,11.706z"/>
		<path fill="#FFFFFF" d="M148.758,19.673l-0.243-1.84h-2.065l-0.226,1.84h-0.694l1.527-12.15h0.954l1.527,12.15H148.758z
			 M147.091,12.868l-0.555,4.305h1.892l-0.538-4.305c-0.197-1.608-0.33-2.991-0.399-4.148
			C147.387,10.143,147.253,11.527,147.091,12.868z"/>
		<path fill="#FFFFFF" d="M152.836,7.523V8.2h-1.371v11.473h-0.781V8.2h-1.354V7.523H152.836z"/>
		<path fill="#FFFFFF" d="M156.498,7.523V8.2h-1.371v11.473h-0.781V8.2h-1.354V7.523H156.498z"/>
		<path fill="#FFFFFF" d="M157.037,17.833v-8.47c0-1.319,0.602-1.979,1.805-1.979c1.216,0,1.823,0.66,1.823,1.979v8.47
			c0,1.319-0.607,1.979-1.823,1.979C157.638,19.811,157.037,19.152,157.037,17.833z M157.8,17.902c0,0.822,0.348,1.232,1.041,1.232
			c0.694,0,1.042-0.41,1.042-1.232V9.293c0-0.822-0.348-1.232-1.042-1.232c-0.693,0-1.041,0.411-1.041,1.232V17.902z"/>
		<path fill="#FFFFFF" d="M163.216,13.962h-0.538v5.71h-0.765V7.523h1.614c0.591,0,1.06,0.133,1.406,0.399
			c0.348,0.267,0.521,0.764,0.521,1.493v2.569c0,0.88-0.324,1.43-0.972,1.649c0.647,0.22,0.972,0.77,0.972,1.649v2.014
			c0,1.146,0.087,1.938,0.261,2.378h-0.851c-0.127-0.509-0.19-1.1-0.19-1.771v-2.465c0-0.566-0.102-0.955-0.305-1.163
			C164.167,14.066,163.783,13.962,163.216,13.962z M162.678,13.285h0.746c0.475,0,0.801-0.084,0.98-0.252
			c0.18-0.167,0.27-0.483,0.27-0.946V9.414c0-0.462-0.09-0.781-0.27-0.955c-0.18-0.173-0.506-0.26-0.98-0.26h-0.746V13.285z"/>
		<path fill="#FFFFFF" d="M169.743,7.523h0.659v12.15h-0.764l-1.806-8.297c-0.058-0.266-0.147-0.734-0.269-1.406
			c-0.121-0.671-0.206-1.122-0.252-1.354c0.058,0.984,0.087,1.921,0.087,2.812v8.245h-0.659V7.523h1.023l1.545,7.082
			c0.058,0.255,0.147,0.729,0.27,1.424c0.121,0.693,0.205,1.162,0.251,1.405c-0.058-1.446-0.086-2.4-0.086-2.863V7.523z"/>
		<path fill="#FFFFFF" d="M172.606,13.684v5.312h2.151v0.677h-2.916V7.523h2.864V8.2h-2.1v4.808h1.892v0.677H172.606z"/>
		<path fill="#FFFFFF" d="M177.83,11.706l0.834-4.183h0.694l-1.632,7.897v4.253h-0.781V15.49l-1.648-7.967h0.78l0.833,4.183
			c0.22,1.18,0.376,2.124,0.469,2.829C177.448,13.841,177.598,12.898,177.83,11.706z"/>
	</g>
	<rect x="0.5" y="0.5" fill="none" stroke="#FFFFFF" stroke-miterlimit="10" width="187" height="26"/>
</g>
</svg>
