<?xml version="1.0" encoding="utf-8"?>
<!-- Generator: Adobe Illustrator 17.1.0, SVG Export Plug-In . SVG Version: 6.00 Build 0)  -->
<!DOCTYPE svg PUBLIC "-//W3C//DTD SVG 1.1//EN" "http://www.w3.org/Graphics/SVG/1.1/DTD/svg11.dtd">
<svg version="1.1" id="Layer_1" xmlns="http://www.w3.org/2000/svg" xmlns:xlink="http://www.w3.org/1999/xlink" x="0px" y="0px"
	 viewBox="0 0 28 28" enable-background="new 0 0 28 28" xml:space="preserve">
<g id="g2901">
	<g>
		<path fill="#0171D0" d="M28,27.155C28,27.62,27.62,28,27.155,28H0.845C0.38,28,0,27.62,0,27.155V0.845C0,0.38,0.38,0,0.845,0
			h26.311C27.62,0,28,0.38,28,0.845V27.155z"/>
	</g>
	<g>
		<path id="path6910" fill="#FFFFFF" d="M6.204,5.433c-0.81,0.798-2.858,4.823,3.06,12.482c6.237,8.071,10.984,7.048,11.864,6.321
			l-4.184-5.277c-0.737,0.584-1.523-0.101-3.005-1.624c-0.978-1.01-2.086-2.334-3.012-3.798c-0.644-1.026-1.203-2.087-0.43-2.7
			L6.204,5.433L6.204,5.433L6.204,5.433z"/>
		<path id="path6912" fill="#FFFFFF" d="M23.205,22.496c0.344-0.273,0.365-0.742,0.117-1.055l0.001-0.008
			c0,0-3.266-4.103-3.269-4.108c-0.259-0.326-0.726-0.372-1.047-0.116l-1.495,1.188l4.199,5.287c0,0,1.494-1.18,1.491-1.184
			L23.205,22.496L23.205,22.496z"/>
		<path id="path6914" fill="#FFFFFF" d="M12.638,9.112c0.342-0.275,0.361-0.745,0.111-1.056l0.004-0.004c0,0-3.386-4.206-3.39-4.211
			c-0.261-0.325-0.728-0.368-1.048-0.11L6.827,4.928l4.322,5.381l1.488-1.188L12.638,9.112L12.638,9.112z"/>
	</g>
</g>
</svg>
