<?xml version="1.0" encoding="utf-8"?>
<!-- Generator: Adobe Illustrator 17.1.0, SVG Export Plug-In . SVG Version: 6.00 Build 0)  -->
<!DOCTYPE svg PUBLIC "-//W3C//DTD SVG 1.1//EN" "http://www.w3.org/Graphics/SVG/1.1/DTD/svg11.dtd">
<svg version="1.1" id="Layer_1" xmlns="http://www.w3.org/2000/svg" xmlns:xlink="http://www.w3.org/1999/xlink" x="0px" y="0px"
	 viewBox="0 0 28 28" enable-background="new 0 0 28 28" xml:space="preserve">
<g id="g2901_5_">
	<g>
		<path fill="#0171D0" d="M28,27.155C28,27.62,27.62,28,27.155,28H0.845C0.38,28,0,27.62,0,27.155V0.845C0,0.38,0.38,0,0.845,0
			h26.311C27.62,0,28,0.38,28,0.845V27.155z"/>
	</g>
	<path id="path3932_1_" fill="#FFFFFF" d="M23.838,7.898c-0.724,0.321-1.502,0.538-2.319,0.636c0.833-0.5,1.474-1.291,1.775-2.233
		c-0.78,0.463-1.644,0.799-2.563,0.98c-0.736-0.785-1.786-1.275-2.946-1.275c-2.23,0-4.037,1.807-4.037,4.037
		c0,0.316,0.036,0.624,0.105,0.92c-3.355-0.168-6.329-1.775-8.32-4.218C5.184,7.34,4.985,8.033,4.985,8.773
		c0,1.4,0.713,2.636,1.796,3.36c-0.662-0.021-1.284-0.203-1.828-0.505c0,0.017,0,0.034,0,0.051c0,1.956,1.391,3.587,3.238,3.958
		c-0.339,0.092-0.695,0.142-1.064,0.142c-0.26,0-0.513-0.025-0.76-0.072c0.514,1.604,2.005,2.771,3.771,2.803
		c-1.382,1.083-3.122,1.728-5.013,1.728c-0.326,0-0.647-0.019-0.963-0.056c1.786,1.145,3.908,1.814,6.188,1.814
		c7.425,0,11.486-6.151,11.486-11.486c0-0.175-0.004-0.349-0.012-0.522C22.612,9.418,23.297,8.707,23.838,7.898z"/>
</g>
</svg>
