<?xml version="1.0" encoding="utf-8"?>
<!-- Generator: Adobe Illustrator 17.1.0, SVG Export Plug-In . SVG Version: 6.00 Build 0)  -->
<!DOCTYPE svg PUBLIC "-//W3C//DTD SVG 1.1//EN" "http://www.w3.org/Graphics/SVG/1.1/DTD/svg11.dtd">
<svg version="1.1" id="Layer_1" xmlns="http://www.w3.org/2000/svg" xmlns:xlink="http://www.w3.org/1999/xlink" x="0px" y="0px"
	 viewBox="0 0 534 290" enable-background="new 0 0 534 290" xml:space="preserve">
<g>
	<g>
		<g>
			<path fill="#00AFF3" d="M266,286.853c0,0-0.078-14.888-0.196-37.22c-0.02-11.166-0.044-24.193-0.069-38.15
				c0.009-13.957,0.018-28.845,0.027-43.733c0.053-14.888,0.107-29.776,0.157-43.733c0.084-13.957,0.163-26.984,0.23-38.15
				c0.213-22.331,0.355-37.219,0.355-37.219s0.079,14.888,0.197,37.22c0.02,11.166,0.043,24.193,0.068,38.15
				c-0.009,13.957-0.019,28.845-0.028,43.733c-0.054,14.888-0.107,29.776-0.158,43.733c-0.084,13.957-0.163,26.984-0.23,38.15
				C266.141,271.966,266,286.853,266,286.853z"/>
		</g>
		<g>
			<path fill="#00AFF3" d="M434.05,182.853c0,0-7.596-9.059-18.99-22.648c-5.663-6.822-12.27-14.781-19.349-23.309
				c-7.049-8.552-14.569-17.674-22.088-26.796c-7.481-9.154-14.962-18.307-21.975-26.889c-6.984-8.606-13.502-16.638-19.089-23.523
				c-11.106-13.825-18.51-23.042-18.51-23.042s7.596,9.059,18.99,22.647c5.663,6.822,12.27,14.781,19.349,23.309
				c7.049,8.552,14.568,17.674,22.087,26.796c7.481,9.154,14.961,18.307,21.974,26.889c6.984,8.606,13.501,16.638,19.088,23.523
				C426.646,173.637,434.05,182.853,434.05,182.853z"/>
		</g>
		<g>
			<path fill="#00AFF3" d="M533.05,61.853c0,0-11.656-3.709-29.14-9.272c-8.731-2.815-18.917-6.099-29.831-9.617
				c-10.904-3.548-22.536-7.332-34.167-11.116c-11.619-3.822-23.238-7.644-34.13-11.228c-10.883-3.613-21.041-6.984-29.747-9.875
				C358.644,4.898,347.05,1,347.05,1s11.656,3.708,29.14,9.271c8.731,2.815,18.917,6.099,29.831,9.618
				c10.904,3.548,22.535,7.332,34.167,11.117c11.619,3.822,23.238,7.645,34.13,11.228c10.883,3.613,21.04,6.985,29.747,9.875
				C521.456,57.955,533.05,61.853,533.05,61.853z"/>
		</g>
	</g>
	<g>
		<g>
			<path fill="#00AFF3" d="M100,182.853c0,0,7.404-9.217,18.51-23.041c5.587-6.885,12.105-14.917,19.088-23.523
				c7.013-8.582,14.494-17.735,21.974-26.889c7.519-9.122,15.038-18.244,22.087-26.796c7.079-8.528,13.686-16.487,19.349-23.309
				C212.404,45.706,220,36.647,220,36.647s-7.404,9.217-18.51,23.042c-5.587,6.885-12.105,14.917-19.089,23.523
				c-7.013,8.581-14.494,17.735-21.975,26.889c-7.519,9.122-15.039,18.244-22.088,26.796c-7.079,8.528-13.686,16.487-19.349,23.309
				C107.596,173.794,100,182.853,100,182.853z"/>
		</g>
		<g>
			<path fill="#00AFF3" d="M1,61.853c0,0,11.594-3.898,28.985-9.745c8.706-2.89,18.864-6.262,29.747-9.875
				c10.893-3.584,22.511-7.406,34.13-11.228c11.631-3.784,23.262-7.569,34.167-11.117c10.914-3.519,21.1-6.803,29.831-9.618
				C175.344,4.708,187,1,187,1s-11.594,3.898-28.985,9.746c-8.706,2.89-18.864,6.262-29.747,9.875
				c-10.893,3.583-22.511,7.406-34.13,11.228c-11.631,3.784-23.262,7.569-34.167,11.116c-10.914,3.518-21.1,6.802-29.831,9.617
				C12.656,58.145,1,61.853,1,61.853z"/>
		</g>
	</g>
</g>
</svg>
